<?xml version="1.0" encoding="utf-8"?>
<!-- Generator: Adobe Illustrator 27.5.0, SVG Export Plug-In . SVG Version: 6.00 Build 0)  -->
<svg version="1.1" id="Capa_1" xmlns="http://www.w3.org/2000/svg" xmlns:xlink="http://www.w3.org/1999/xlink" x="0px" y="0px"
	 viewBox="0 0 1871 2406" style="enable-background:new 0 0 1871 2406;" xml:space="preserve">
<path style="fill:#0C121E;" d="M1229.629,901.904c0,0,0.433-1.595,1.172-4.357c0.085-0.317,0.182-0.68,0.275-1.028
	c0.085-0.322,0.17-0.637,0.262-0.983c0.08-0.301,0.168-0.627,0.252-0.946c0.089-0.337,0.175-0.661,0.27-1.016
	c0.144-0.544,0.297-1.118,0.451-1.704c0.037-0.139,0.07-0.263,0.107-0.403h0l-22.502,25.162l-15.099,17.514
	c0,0-9.897,1.696-21.491,1.696c-10.146,0-17.555,9.094-22.775,19.324c-0.746,1.462-1.446,2.946-2.104,4.431
	c-0.848,1.913-2.919,3.436-5.64,4.744c0.037,1.182,0.037,2.373-0.032,3.578l-25.147,16.841l-33.936,10.311l18.88-49.483
	l-58.907,64.276c8.776-2.779,16.497-4.603,19.666-3.194c7.636,3.393,11.878,5.939,11.878,5.939s-0.228-0.821-0.438-1.984
	c-0.065-0.354-0.126-0.715-0.178-1.128c-0.025-0.193-0.036-0.389-0.057-0.591c-0.041-0.407-0.07-0.814-0.083-1.245
	c-0.007-0.232,0.002-0.454,0.006-0.689c0.007-0.417,0.037-0.821,0.087-1.232c0.029-0.241,0.066-0.47,0.113-0.704
	c0.079-0.397,0.198-0.765,0.334-1.13c0.08-0.213,0.152-0.424,0.254-0.621c0.186-0.36,0.44-0.663,0.71-0.958
	c0.13-0.141,0.229-0.304,0.38-0.427c0.46-0.375,1.004-0.674,1.69-0.837c0.003-0.001,0.006-0.004,0.009-0.005
	c0.027-0.006,0.059-0.015,0.086-0.021c0.804-0.19,1.723-0.424,2.707-0.68c0.418-0.109,0.827-0.214,1.273-0.332
	c0.422-0.11,0.862-0.226,1.307-0.343c1.544-0.407,3.211-0.84,4.984-1.284c0.312-0.078,0.616-0.153,0.932-0.231
	c1.333-0.328,2.697-0.654,4.107-0.966c0.008-0.002,0.016-0.004,0.024-0.006c10.368-2.293,22.359-3.822,29.262,0.426
	c2.497,1.537,4.671,3.089,6.633,4.591l0,0c0.289,0.221,0.621,0.45,0.898,0.668c0.678,0.532,1.287,1.042,1.894,1.551
	c4.915,4.119,7.543,7.33,7.543,7.33s-0.116-1.738,0.583-3.929c0-0.001,0-0.002,0-0.004c0.002-0.01,0.008-0.02,0.011-0.03
	c0.127-0.391,0.286-0.797,0.47-1.211c0.047-0.105,0.101-0.21,0.153-0.316c0.162-0.334,0.346-0.669,0.553-1.006
	c0.078-0.127,0.155-0.251,0.239-0.378c0.23-0.342,0.492-0.68,0.776-1.015c0.087-0.102,0.162-0.206,0.256-0.308
	c0.391-0.427,0.824-0.844,1.322-1.238c0.066-0.053,0.148-0.098,0.217-0.151c0.432-0.329,0.906-0.642,1.424-0.935
	c0.196-0.111,0.413-0.21,0.623-0.315c0.441-0.221,0.909-0.428,1.412-0.618c0.26-0.099,0.525-0.192,0.802-0.281
	c0.542-0.174,1.126-0.321,1.735-0.455c0.283-0.062,0.549-0.132,0.847-0.185c0.929-0.164,1.914-0.292,3-0.353
	c6.447-0.358,12.541-0.379,17.872,0.123c-0.303-11.049,0.043-23.89,0.609-26.554c0.961-4.525,41.536-11.312,41.536-11.312
	l-16.196-14.705l31.701,5.656c0,0,6.477-26.018,16.658-49.772c10.181-23.755,46.377-78.369,46.377-78.369L1229.629,901.904z"/>
<path style="fill:#2B3344;" d="M656.369,1071.648c0.001-0.316,0.003-0.634,0.007-0.958c0.01-1.045,0.026-2.127,0.053-3.252
	c0.006-0.195,0.007-0.38,0.012-0.577c0.034-1.365,0.081-2.784,0.139-4.247c0.008-0.205,0.019-0.416,0.027-0.622
	c0.053-1.283,0.114-2.596,0.184-3.939c0.016-0.301,0.031-0.598,0.048-0.902c0.836-15.438,2.747-34.238,5.424-48.247l-6.038-6.502
	l-105.688-25.722l74.658-8.484c-25.451-6.787-74.658-27.148-74.658-27.148l52.6-16.466l-44.116-58.193l50.903,28.845l-32.239-65.926
	l63.035,77.804c0,0-0.148-0.544-0.41-1.518c-0.068-0.255-0.149-0.551-0.233-0.866c-0.05-0.184-0.095-0.354-0.151-0.557
	c-0.084-0.314-0.181-0.678-0.278-1.037c-0.034-0.13-0.063-0.238-0.099-0.374c-4.146-15.494-18.005-68.103-19.446-84.369
	c-1.695-19.153,10.181-112.519,10.181-112.519c1.46,3.329,3.597,8.878,6.118,15.728c0-0.001,0-0.002,0-0.002
	c0.033,0.09,0.068,0.188,0.102,0.279c0.333,0.908,0.671,1.831,1.018,2.783c0.053,0.143,0.106,0.29,0.157,0.434
	c1.511,4.153,3.132,8.685,4.819,13.459c0.068,0.192,0.135,0.381,0.203,0.573c0.412,1.166,0.827,2.343,1.245,3.533
	c0.028,0.08,0.056,0.16,0.084,0.239c0.436,1.242,0.874,2.49,1.316,3.754c0.007,0.02,0.015,0.041,0.021,0.06
	c4.576,13.087,9.381,27.131,13.514,39.312c0.009,0.027,0.018,0.053,0.027,0.08c0.389,1.147,0.772,2.275,1.148,3.386
	c0.047,0.138,0.093,0.274,0.14,0.412c1.446,4.27,2.784,8.238,3.979,11.787c0.134,0.397,0.269,0.798,0.398,1.184
	c0.206,0.613,0.403,1.197,0.599,1.781c0.139,0.413,0.276,0.82,0.41,1.219c0.185,0.552,0.366,1.089,0.542,1.611
	c0.122,0.365,0.239,0.714,0.356,1.063c0.3,0.895,0.581,1.733,0.845,2.521c0.413,1.23,0.782,2.335,1.098,3.279
	c0.002,0.004,0.002,0.007,0.003,0.011c0.398,1.191,0.71,2.122,0.935,2.798c0.068,0.206,0.118,0.355,0.17,0.51
	c0.053,0.161,0.118,0.354,0.152,0.457c0.054,0.162,0.089,0.268,0.089,0.268s-0.344-2.514-0.911-6.802
	c-0.007-0.055-0.013-0.093-0.02-0.148v0.001c-3.41-25.778-14.966-116.341-12.615-142.456c1.746-19.396,12.18-47.967,19.577-66.279
	c0.999,2.306,2.021,4.702,3.068,7.182v-28.826c0,0,22.981,48.885,27.539,61.065c4.557,12.18-5.689,60.779,0,72.112
	c5.69,11.333,39.625,140.185,45.281,155.507c5.656,15.323,100.675,43.668,100.675,43.668s48.641-90.335,52.034-98.366
	c1.767-4.181,6.598-46.955,10.826-87.005c0.421-54.699,0.857-102.764,1.23-126.79c0.003-0.19,0.007-0.371,0.01-0.558
	c0.014-0.929,0.029-1.841,0.044-2.695c0.007-0.449,0.015-0.852,0.023-1.28c0.007-0.396,0.014-0.821,0.021-1.197l-3.104-25.326
	c0,0.162-7.353-8.646-17.816-8.646c-10.464,0-16.12,16.402-21.776,18.251c-5.656,1.849-28.28-34.653-34.501-50.781
	c-2.162-5.604-4.099-10.851-5.734-15.376C806.303,525.223,689.444,574.726,684.95,576c-5.09,1.443-3.393-8.562-3.393-8.562
	c24.321-8.816,76.355-56.793,83.708-65.663c5.91-7.13,43.893-9.838,58.572-10.626l-3.067-5.258v0.001l-0.044-0.077l-0.033-0.055
	c0,0,1.344-2.561,3.32-6.507c-5.599,0.9-23.947,3.958-42.346,8.203c-22.058,5.09-24.589,0-41.556,23.755
	c-16.968,23.754-43.283,40.722-60.25,47.509c-16.968,6.787-16.968,1.697-15.272,15.271c0.081,0.647,0.299,1.476,0.518,2.31
	c-10.199,5.153-24.32,15.015-39.912,33.873c-24.175,29.239-42.419,109.009-54.297,130.282c0,0-20.361,24.36-10.181,37.238
	c0,0-37.266,88.082-49.143,135.401c-6.606,26.318,3.858,67.933,35.569,102.607c0,0,22.651,17.726,109.22,57.02
	C656.363,1072.377,656.367,1072.005,656.369,1071.648z"/>
<path style="fill:#1D2533;" d="M696.632,868.084c5.826-3.393-12.616-123.299-16.164-135.494
	c-3.548-12.196,2.985-100.324,2.985-100.324l9.439,15.99c-0.032-0.106-0.059-0.213-0.09-0.318c0.369,1.248,0.708,2.5,1.058,3.758
	c0.581,2.093,1.133,4.197,1.652,6.311c0.332,1.352,0.646,2.7,0.949,4.058c0.468,2.095,0.882,4.197,1.273,6.3
	c0.25,1.341,0.504,2.675,0.718,4.016c0.362,2.26,0.635,4.516,0.89,6.771c0.13,1.162,0.301,2.325,0.401,3.485
	c0.29,3.357,0.47,6.702,0.473,10.015c0,0.038,0.006,0.076,0.006,0.114c0,15.793,6.188,79.11,6.188,79.11l33.701,111.059
	c0,0-6.484,83.037-3.674,86.418c2.81,3.381,43.533,31.704,43.533,31.704l59.387-16.299v-28.975l76.67,81.994h38.71l-41.287-39.026
	c0,0,0.855-151.117,1.777-270.709c-4.228,40.051-9.059,82.824-10.826,87.005c-3.393,8.032-52.034,98.366-52.034,98.366
	s-95.019-28.346-100.675-43.668c-5.656-15.322-39.591-144.174-45.281-155.507c-5.689-11.332,4.557-59.932,0-72.112
	c-4.558-12.18-27.539-61.065-27.539-61.065v28.826c-1.047-2.481-2.069-4.876-3.068-7.182c-7.396,18.312-17.831,46.884-19.577,66.279
	c-2.351,26.115,9.205,116.678,12.615,142.456C668.86,811.495,690.806,871.477,696.632,868.084z"/>
<path style="fill:#1D2533;" d="M640.721,777.081c1.065-5.841-1.642-32.496-4.318-55.482c-2.521-6.851-4.658-12.399-6.118-15.728
	c0,0-11.876,93.366-10.181,112.519c1.291,14.562,12.512,58.171,17.828,78.283l22.502,25.161c0,0-17.141-50.357-19.714-56.013
	c-2.573-5.656,24.065,26.017,31.701,20.361C680.056,880.528,638.768,787.771,640.721,777.081z"/>
<path style="fill:#1D2533;" d="M669.68,988.852c5.165-2.348,17.346-3.649,28.635-3.486c-0.13-3.663-0.323-6.47-0.554-7.557
	c-0.961-4.524-41.535-11.311-41.535-11.311l16.196-14.706l-31.701,5.656c0,0-6.477-26.017-16.657-49.772
	c-10.181-23.754-46.379-78.369-46.379-78.369l32.239,65.926l-50.903-28.845l44.116,58.193l-52.6,16.466
	c0,0,49.207,20.361,74.658,27.148l-74.658,8.484l105.688,25.722l6.038,6.502C664.328,998.095,666.846,990.14,669.68,988.852z"/>
<path style="fill:#435063;" d="M623.498,876.568c2.545,2.546-8.484-27.996-16.12-50.903c-7.635-22.906-1.697-83.99,0-86.386
	c0,0-28.845,47.361-26.3,66.874C583.624,825.665,620.953,874.024,623.498,876.568z"/>
<path style="fill:#435063;" d="M542.053,905.413c1.698,0,44.117,11.029,44.117,11.029s-38.178-41.571-44.117-33.087
	C536.115,891.839,540.356,905.413,542.053,905.413z"/>
<path style="fill:#435063;" d="M523.389,921.835c-1.697,5.636,2.545,11.553,2.545,11.553l51.751-8.807
	C575.141,923.23,525.085,916.199,523.389,921.835z"/>
<path style="fill:#435063;" d="M571.747,991.949c5.939,8.484,43.268,21.21,43.268,21.21l36.481-6.897
	C651.495,1006.262,565.808,983.465,571.747,991.949z"/>
<path style="fill:#2B3344;" d="M1309.632,772.49c10.181-12.879-10.181-37.239-10.181-37.239
	c-11.878-21.273-30.122-101.043-54.297-130.282c-31.03-37.53-56.263-39.461-56.263-39.461
	c-10.181-13.574-57.125-33.37-72.396-52.034c-15.271-18.664-18.665-27.714-37.329-28.845c-18.664-1.131-41.288-11.186-49.771-8.421
	c-3.87,1.261-9.85-0.883-15.218-3.582c-0.493,21.29-11.104,90.887-15.324,94.579c-0.724,0.633-2.106-0.16-3.872-1.799
	c-0.641,4.75-1.622,9.386-3.482,10.595c-3.959,2.574-22.623-28.026-26.017-26.329c-3.393,1.697-4.974,31.521-4.974,31.521l0,0
	c0.035,0.149,0.07,0.298,0.104,0.447c0.094,0.402,0.187,0.795,0.281,1.201c0.252,1.084,0.507,2.189,0.761,3.303
	c0.059,0.258,0.118,0.508,0.176,0.767c0.643,2.813,1.289,5.708,1.936,8.666c0.038,0.178,0.078,0.358,0.116,0.536
	c0.273,1.256,0.545,2.518,0.818,3.792c0.106,0.496,0.21,0.999,0.316,1.498c0.215,1.018,0.43,2.036,0.642,3.062
	c0.093,0.449,0.184,0.901,0.277,1.351c0.214,1.045,0.428,2.09,0.639,3.14c0.113,0.562,0.224,1.125,0.335,1.688
	c0.188,0.951,0.376,1.901,0.562,2.854c0.112,0.574,0.22,1.148,0.33,1.722c0.183,0.953,0.364,1.905,0.542,2.858
	c0.114,0.609,0.225,1.215,0.337,1.824c0.162,0.887,0.323,1.773,0.482,2.657c0.116,0.649,0.23,1.295,0.342,1.942
	c0.156,0.887,0.307,1.771,0.457,2.653c0.104,0.608,0.204,1.214,0.305,1.819c0.149,0.901,0.294,1.798,0.436,2.692
	c0.096,0.597,0.19,1.192,0.281,1.785c0.137,0.882,0.269,1.756,0.398,2.63c0.089,0.6,0.178,1.2,0.263,1.794
	c0.122,0.853,0.238,1.695,0.353,2.537c0.08,0.593,0.161,1.187,0.238,1.774c0.11,0.846,0.212,1.68,0.314,2.512
	c0.067,0.557,0.137,1.116,0.2,1.666c0.1,0.857,0.188,1.697,0.276,2.536c0.053,0.508,0.11,1.022,0.16,1.523
	c0.087,0.875,0.16,1.729,0.233,2.581c0.037,0.443,0.081,0.896,0.116,1.333c0.076,0.962,0.136,1.897,0.194,2.826
	c0.019,0.302,0.043,0.616,0.061,0.915c0.068,1.225,0.123,2.422,0.157,3.582c0.024,0.807,0.055,1.754,0.093,2.794
	c0.004,0.127,0.01,0.26,0.014,0.39c0.039,1.042,0.081,2.175,0.131,3.426c0.001,0.027,0.003,0.049,0.003,0.076
	c0.052,1.293,0.111,2.707,0.175,4.211c0.009,0.199,0.018,0.407,0.027,0.609c0.058,1.344,0.12,2.768,0.187,4.266
	c0.01,0.217,0.019,0.422,0.028,0.642c0.02,0.449,0.044,0.957,0.065,1.42l1.183,0.519c0,0,21.412,113.134,20.793,118.938
	c-0.62,5.804,73.823,120.053,73.823,120.053l47.725-54.562c0,0,19.616-60.559,26.209-88.968c1.218-5.247,2.597-1.364,4.044,8.445
	c-1.867,5.611-3.654,10.965-5.313,15.961c9.004-27.105,22.224-66.128,26.857-85.821c3.643-15.483,11.75-53.225,16.908-86.976
	c2.111-13.812,3.722-26.936,4.336-37.609c7.084,16.79,20.859,51.752,22.891,74.308c2.751,30.554-13.546,149.404-13.546,149.404
	s0.035-0.106,0.089-0.268c0.033-0.104,0.099-0.297,0.152-0.457c0.052-0.154,0.101-0.304,0.17-0.51
	c0.225-0.676,0.536-1.606,0.934-2.798c0.001-0.004,0.003-0.007,0.004-0.011c0.315-0.944,0.685-2.048,1.097-3.279
	c0.264-0.788,0.545-1.626,0.845-2.521c0.117-0.35,0.234-0.698,0.357-1.063c0.175-0.522,0.355-1.059,0.541-1.612
	c0.133-0.398,0.27-0.806,0.41-1.219c0.222-0.663,0.449-1.337,0.685-2.037c0.009-0.027,0.018-0.055,0.028-0.082
	c9.237-27.456,27.887-82.328,34.174-96.663c0,0,11.877,93.366,10.181,112.519c-1.289,14.544-12.502,58.136-17.828,78.284h0
	c-0.037,0.141-0.07,0.265-0.107,0.403c-0.155,0.586-0.307,1.161-0.451,1.704c-0.094,0.355-0.181,0.68-0.27,1.016
	c-0.084,0.318-0.171,0.646-0.252,0.946c-0.092,0.346-0.177,0.661-0.262,0.983c-0.094,0.354-0.188,0.704-0.275,1.028
	c-0.739,2.761-1.172,4.357-1.172,4.357l63.035-77.804l-32.239,65.926l50.903-28.845l-44.116,58.193l52.6,16.466
	c0,0-49.207,20.362-74.657,27.148l74.657,8.484l-105.688,25.722l-21.696,23.366c3.137,17.33,5.773,43.829,5.472,54.179
	c99.918-44.359,125.306-64.241,125.306-64.241c31.712-34.675,42.175-76.29,35.569-102.607
	C1346.898,860.571,1309.632,772.49,1309.632,772.49z"/>
<path style="fill:#1D2533;" d="M1229.629,952.242l-31.701-5.656l16.196,14.705c0,0-40.574,6.787-41.536,11.312
	c-0.566,2.663-0.912,15.505-0.609,26.554c7.297,0.687,13.122,2.384,16.064,5.815c1.409,1.645,2.949,7.658,4.385,15.588
	l21.696-23.366l105.688-25.722l-74.657-8.484c25.451-6.787,74.657-27.148,74.657-27.148l-52.6-16.466l44.116-58.193l-50.903,28.845
	l32.239-65.926c0,0-36.197,54.614-46.377,78.369C1236.106,926.224,1229.629,952.242,1229.629,952.242z"/>
<path style="fill:#1D2533;" d="M1229.629,771.875c1.952,10.689-39.335,103.446-31.701,109.102
	c7.635,5.656,34.273-26.017,31.701-20.362c-2.572,5.656-19.714,56.013-19.714,56.013l22.502-25.162
	c5.326-20.148,16.539-63.739,17.828-78.284c1.697-19.153-10.181-112.519-10.181-112.519c-6.288,14.336-24.938,69.208-34.174,96.663
	c7.091-21.078,19.725-58.294,28.057-80.937C1231.271,739.377,1228.563,766.033,1229.629,771.875z"/>
<path style="fill:#1D2533;" d="M1189.881,727.384c-3.548,12.196-21.991,132.101-16.163,135.495
	c5.826,3.392,27.774-56.598,27.791-56.644c-0.579,4.381-0.93,6.949-0.93,6.949s16.297-118.851,13.546-149.404
	c-2.031-22.556-15.806-57.518-22.891-74.308c-0.613,10.673-2.225,23.797-4.336,37.609
	C1186.931,627.527,1193.421,715.219,1189.881,727.384z"/>
<path style="fill:#0C121E;" d="M1141.233,805.615c-0.428,1.297-0.841,2.554-1.241,3.772c-0.174,0.53-0.351,1.07-0.519,1.583
	c-0.452,1.384-0.873,2.685-1.278,3.941c-0.142,0.445-0.287,0.893-0.424,1.32c-0.275,0.859-0.514,1.623-0.762,2.409
	c1.939,2.985,4.028,6.115,6.246,9.361c5.774,8.45,12.368,17.637,19.108,26.791c2.697,3.66,5.417,7.316,8.118,10.917
	c4.052,5.401,8.059,10.679,11.881,15.666c2.546,3.325,5.01,6.521,7.347,9.538c11.684,15.088,20.207,25.717,20.207,25.717
	s17.141-50.358,19.714-56.013c2.573-5.656-24.066,26.017-31.701,20.362c-7.635-5.656,33.653-98.413,31.701-109.102
	c-1.066-5.842,1.643-32.498,4.318-55.485c-8.332,22.643-20.966,59.859-28.057,80.937c-0.01,0.027-0.019,0.055-0.028,0.082
	c-0.236,0.703-0.461,1.371-0.685,2.037c-0.139,0.413-0.277,0.82-0.41,1.219c-0.186,0.551-0.367,1.09-0.541,1.612
	c-0.123,0.365-0.239,0.714-0.357,1.063c-0.3,0.895-0.582,1.732-0.845,2.521c-0.412,1.23-0.782,2.335-1.097,3.279
	c-0.001,0.004-0.003,0.007-0.004,0.011c-0.398,1.191-0.708,2.122-0.934,2.798c-0.059,0.175-0.125,0.372-0.17,0.51
	c-0.054,0.161-0.119,0.354-0.152,0.457c-0.054,0.162-0.089,0.268-0.089,0.268s0.351-2.567,0.93-6.949
	c-0.016,0.046-21.965,60.036-27.791,56.644c-5.828-3.394,12.614-123.299,16.163-135.495c3.539-12.165-2.95-99.856-2.983-100.303
	c-5.158,33.751-13.265,71.493-16.908,86.976c-4.633,19.693-17.853,58.716-26.857,85.821c-0.324,0.973-0.641,1.93-0.953,2.872
	C1141.857,803.724,1141.542,804.677,1141.233,805.615z"/>
<path style="fill:#1D2533;" d="M1160.895,1190.769c-7.377-0.777-14.923-0.14-21.761-0.106c-0.939,0.005-1.863-0.006-2.772-0.029
	c-0.158-0.004-0.315-0.01-0.471-0.016c-0.761-0.025-1.51-0.064-2.247-0.118c-0.24-0.018-0.478-0.037-0.714-0.058
	c-0.65-0.057-1.286-0.131-1.913-0.216c-0.278-0.038-0.554-0.077-0.828-0.121c-0.577-0.093-1.142-0.208-1.698-0.333
	c-0.286-0.063-0.572-0.125-0.852-0.198c-0.525-0.137-1.032-0.302-1.534-0.472c-0.28-0.094-0.565-0.182-0.837-0.288
	c-0.489-0.191-0.956-0.418-1.42-0.647c-0.253-0.125-0.516-0.235-0.76-0.372c-0.48-0.27-0.934-0.586-1.384-0.906
	c-0.198-0.141-0.41-0.26-0.602-0.411c-0.626-0.494-1.223-1.037-1.778-1.648c-2.651-2.916-4.142-9.357-4.94-16.834
	c-0.319-2.99-0.526-6.147-0.653-9.311c-0.57-14.234,0.503-28.604,0.503-28.605c-0.003,0.001-3.275,0.842-7.784,1.848
	c-1.067,0.238-2.189,0.482-3.37,0.729c-0.476,0.1-0.954,0.198-1.443,0.297c-2.438,0.495-5.001,0.974-7.505,1.373
	c-0.3,0.048-0.595,0.094-0.892,0.139c-4.51,0.685-8.678,1.057-11.283,0.703c-0.647-0.088-1.226-0.208-1.658-0.393
	c-2.97-1.273-5.09-4.454-6.469-7.318c-1.377-2.859-2.013-5.396-2.015-5.405c0.001,0.011,0.303,5.057-0.416,9.38
	c-0.053,0.323-0.129,0.615-0.194,0.928c-0.227,1.081-0.549,2.034-0.953,2.86c-0.475,0.974-1.042,1.784-1.831,2.1
	c-3.712,1.484-30.807,11.413-40.365,9.894c-1.366-0.217-2.373-0.668-2.903-1.41c-1.06-1.485-1.962-3.5-2.717-5.687
	c-0.324-0.937-0.616-1.907-0.887-2.88c-0.086-0.308-0.17-0.613-0.251-0.92c-0.501-1.906-0.903-3.779-1.215-5.432
	c-1.626,0.319-3.242,0.638-4.914,0.938c-1.169,0.209-2.373,0.4-3.563,0.6c-2.642,0.445-5.319,0.871-8.055,1.269
	c-1.376,0.2-2.756,0.393-4.153,0.581c-2.787,0.375-5.617,0.72-8.482,1.045c-1.273,0.144-2.527,0.298-3.813,0.432
	c-2.764,0.288-5.569,0.538-8.389,0.778c-0.078,0.317-0.166,0.583-0.248,0.879c-0.084,0.302-0.166,0.612-0.256,0.892
	c-0.131,0.411-0.272,0.772-0.414,1.131c-0.093,0.234-0.182,0.487-0.279,0.699c-0.165,0.356-0.342,0.647-0.52,0.935
	c-0.09,0.143-0.171,0.318-0.264,0.444c-0.278,0.379-0.57,0.688-0.882,0.9c-9.458,6.46-65.231,3.394-74.563,0
	c-0.265-0.097-0.517-0.288-0.759-0.529c-0.075-0.075-0.147-0.173-0.22-0.261c-0.166-0.201-0.328-0.43-0.484-0.697
	c-0.075-0.128-0.148-0.259-0.22-0.401c-0.159-0.316-0.312-0.672-0.46-1.057c-0.05-0.132-0.103-0.247-0.153-0.387
	c-0.192-0.546-0.375-1.146-0.547-1.807c-0.034-0.13-0.064-0.28-0.098-0.414c-0.052-0.216-0.105-0.439-0.156-0.665
	c-1.836-0.186-3.669-0.37-5.485-0.582c-1.262-0.148-2.499-0.323-3.75-0.484c-2.979-0.384-5.926-0.799-8.838-1.26
	c-1.408-0.222-2.804-0.453-4.194-0.694c-2.845-0.494-5.637-1.034-8.399-1.605c-1.224-0.253-2.463-0.49-3.669-0.759
	c-1.933-0.432-3.81-0.907-5.694-1.379c-0.597,7.46-0.992,12.134-0.992,12.134s-0.917,3.471-2.318,7.693
	c43.506,9.875,79.577,20.406,80.37,23.47c1.696,6.56,17.25,42.646,17.25,42.646s-48.641-27.997-62.687-38.178
	c-4.093-2.966-20.403-8.209-41.412-14.143c-0.828,0.815-2.098,1.481-3.75,1.997c-2.463,0.768-5.681,1.235-9.177,1.493
	c-1.747,0.128-3.565,0.205-5.393,0.241c-1.828,0.036-3.665,0.032-5.453-0.002c-4.47-0.084-8.63-0.349-11.546-0.614
	c-9.331-0.849-10.181-12.721-10.181-12.725c-0.002,0.002-1.658,1.989-3.935,4.307c-1.368,1.392-2.958,2.903-4.548,4.176
	c-0.306,0.244-0.715,0.46-1.178,0.661c-0.141,0.062-0.308,0.115-0.463,0.173c-0.36,0.134-0.747,0.258-1.175,0.371
	c-0.199,0.053-0.402,0.103-0.615,0.151c-0.469,0.105-0.971,0.198-1.501,0.282c-0.203,0.032-0.392,0.068-0.602,0.097
	c-7.959,1.095-21.528-0.009-29.25-2.583c-10.181-3.394-9.332-14.423-9.332-14.423s-2.757,5.501-6.705,11.969
	c20.454,3.83,125.789,23.75,136.507,29.745c11.878,6.644,70.134,43.404,72.396,43.688c2.263,0.284,71.83-50.975,71.83-50.975
	l27.149-23.394c0,0-28.846,36.763-33.936,50.618c-5.09,13.855-26.018,41.852-26.018,41.852s26.018-5.582,34.501-7.457
	c8.484-1.876,76.354-21.734,88.231-21.137c11.878,0.597,44.116,10.493,44.116,10.493s-50.903,9.582-76.355,21.901
	c-25.452,12.319-90.494,56.435-90.494,56.435s78.618-26.023,104.068-35.918c25.452-9.895,52.877-12.913,52.877-12.913
	s-34.213,23.26-61.361,32.652c-27.148,9.391-95.585,45.031-95.585,45.031s-12.443,25.22,0,20.242
	c12.444-4.978,139.702-54.584,117.644-42.507c-22.058,12.078-113.119,60.759-117.644,68.657
	c-4.525,7.898,112.553,78.795,112.553,78.795L991.5,1421.995c0,0,79.317,61.508,78.967,68.275
	c-0.35,6.767-24.104,106.877-15.621,145.902c2.16,9.935,6.524,23.288,11.879,38.166l81.72-60.224l32.412,308.323l-32.412,42.909
	c0,0-13.851-164.587-15.548-173.071c-1.695-8.474-66.026-117.684-66.168-117.925c15.68,43.561,39.884,100.251,42.414,123.015
	c3.393,30.542,24.203,162.278,23.13,172.765c-1.072,10.487,56.253,27.337,37.771,40.97c-18.482,13.633-36.699-4.919-37.771,28.112
	c-1.072,33.031,16.172,63.572,16.172,63.572l-56.149,41.95c-1.223,9.336-1.002,16.731,4.403,18.789
	c0.245,0.093,0.54,0.125,0.828,0.166c0.752-6.885,1.434-11.698,1.434-11.698s56.842-37.329,66.174-39.026
	c9.333-1.697,35.301,12.533,35.303,12.534c4.198,0.583,7.116,0.825,7.116,0.825s-2.262-51.254,0-76.14
	c2.263-24.885,13.575-46.3,0-58.216c-13.573-11.917-11.311-28.546-6.786-50.773c4.524-22.227-8.811-36.065-10.061-71
	c-1.251-34.935-28.399-217.388-23.874-248.33c4.524-30.941,4.524-39.99,6.787-76.188c1.923-30.758,2.209-247.804-6.076-354.646
	C1165.539,1191.079,1163.388,1191.031,1160.895,1190.769z"/>
<path style="fill:#1D2533;" d="M663.872,1970.129c12.595,7.094,88.95,36.241,88.95,36.241s1.696-72.476,0-108.502
	c-1.697-36.026-12.711-173.465-12.711-173.465l60.221,104.937c0,0,5.09-22.32,0-46.661c-4.332-20.712-51.614-84.56-59.883-107.599
	c-0.102,14.159-0.338,27.264-0.338,27.264l-15.781,179.858l-45.46,52.6l27.539-251.123l19.264,25.452c0,0-6.787-67.871-7.445-88.232
	c-0.658-20.362,51.561-96.716,51.561-95.598c0,0,22.058,36.588,6.956,53.395c-15.102,16.807-37.498,52.383-36.634,64.26
	c0.323,4.437,0.404,13.85,0.38,23.899c9.433-7.342,27.862-22.702,47.962-61.228c20.362-39.026-13.574-56.576-1.695-89.372
	c11.876-32.795,83.141-199.279,83.141-199.279l-93.153,159.668c0,0,34.157-157.876,38.204-176.488
	c4.047-18.612-96.721-57.458-96.721-57.458s161.851,51.073,161.851,44.959c0-6.113-161.851-79.354-161.851-79.354
	s99.07-4.608,133.006,8.865c33.936,13.473,76.459,28.391,76.459,28.391s-30.646-38.672-57.795-48.853
	c-24.276-9.103-108.857-32.88-126.495-37.813c-0.852,1.389-1.75,2.808-2.693,4.236c129.203,30.864,156.336,61.316,156.336,61.316
	s-24.153,1.106-44.116-16.142c-19.962-17.248-120.471-20.081-125.561-16.687c-2.263,1.508-4.317-4.976-5.905-12.64
	c-0.005,0-0.01,0.001-0.015,0.002c-0.492,0.057-0.981,0.114-1.492,0.149c-0.45,0.031-0.914,0.044-1.377,0.059
	c-0.593,0.021-1.179,0.049-1.79,0.046c-0.192-0.001-0.392-0.015-0.585-0.018c-6.604-0.112-14.162-1.523-21.012-3.523
	c-0.423,3.599-0.824,7.094-1.194,10.409c-4.525,40.582,18.099,200.442,13.574,235.893c-4.525,35.45,14.777,53.149,0.601,160.811
	c-14.176,107.663-31.447,335.872-44.304,359.771c-1.138,2.117-2.21,4.146-3.246,6.134
	C658.98,1958.661,659.138,1967.464,663.872,1970.129z"/>
<path style="fill:#843732;" d="M856.324,438.25l76.958,65.964c0.258-0.075,0.492-0.14,0.755-0.217l7.691-12.581
	c0,0,9.959-9.959,21.401-21.354c1.635-1.627,3.299-3.284,4.97-4.945c13.361-13.292,27.078-26.866,28.492-27.997
	c0.016-0.014,0.037-0.018,0.054-0.031v-6.005c-2.855,2.95-7.105,6.963-11.961,11.382c-1.638,3.827-7.197,8.393-13.092,11.643
	c-11.315,9.878-22.385,19.128-25.654,21.471c-7.1,5.09-9.866,6.363-21.318,5.09c-9.307-1.034-57.258-39.313-75.244-54.314
	c0.157,2.25,0.301,4.282,0.43,6.094c0.051,0.028,0.104,0.045,0.156,0.075C853.355,434.432,856.324,438.25,856.324,438.25z"/>
<path style="fill:#6B2928;" d="M984.684,442.465c4.855-4.419,9.106-8.432,11.961-11.382v-3.331
	C991.027,433.783,985.953,439.5,984.684,442.465L984.684,442.465z"/>
<path style="fill:#6B2928;" d="M924.621,480.669c11.453,1.273,14.218,0,21.318-5.09c3.268-2.343,14.339-11.593,25.654-21.471
	c-4.643,2.561-9.49,4.326-12.824,4.138c-7.566-0.428-32.446,2.842-42.742,0.014c-10.296-2.828-20.605-15.285-31.916-22.147
	c-11.312-6.862-31.108-16.328-33.936-22.549c-1.23-2.705-2.216-10.386-3.016-19.089c0.331,4.78,0.669,9.659,0.999,14.409
	c0.187,2.703,0.369,5.321,0.547,7.868c0.01,0.14,0.019,0.277,0.029,0.416c0.227,3.258,0.446,6.397,0.642,9.188h0.001
	C867.363,441.355,915.313,479.635,924.621,480.669z"/>
<path style="fill:#1D2533;" d="M975.203,690.926c0.088,1.835,0.178,3.71,0.272,5.666c0.028,0.567,0.057,1.163,0.085,1.74
	c0.073,1.503,0.148,3.037,0.225,4.604C980.337,795.655,991.5,998.75,991.5,998.75l-36.763,39.026h45.96
	c0.004-0.659,0.015-1.339,0.046-2.053c0.072-1.652,0.252-3.415,0.629-5.133c0.527-2.408,1.468-4.711,3.106-6.487
	c0.073-0.079,0.128-0.171,0.204-0.249c1.282-1.301,2.972-2.285,5.2-2.763c0.843-0.181,1.813-0.433,2.87-0.736
	c0.097-0.028,0.208-0.063,0.307-0.092c1.017-0.296,2.099-0.628,3.258-1.002l0.001,0c7.591-2.452,18.043-6.453,27.346-9.399
	l58.907-64.276l-18.88,49.483l33.936-10.311l25.147-16.841c0.069-1.205,0.069-2.396,0.032-3.578
	c-0.083-2.626-0.474-5.166-1.177-7.589c-0.094-0.324-0.14-0.665-0.246-0.984c-5.091-15.271-6.364-36.269-7.397-52.971
	c-0.345-5.568-0.663-10.658-1.086-14.9c-1.067-10.667-1.461-26.694-0.766-40.501c0.411-8.157,1.201-15.542,2.462-20.582
	c0.004-0.018,0.013-0.048,0.017-0.066c0.167-0.664,0.398-1.494,0.663-2.413c0.047-0.167,0.09-0.319,0.141-0.494
	c0.269-0.923,0.587-1.972,0.937-3.105c0.088-0.286,0.178-0.577,0.271-0.876c0.118-0.377,0.26-0.82,0.385-1.217
	c0.247-0.786,0.487-1.55,0.762-2.409c0.136-0.426,0.282-0.876,0.424-1.32c0.405-1.256,0.826-2.557,1.278-3.941
	c0.168-0.513,0.346-1.054,0.519-1.583c0.4-1.218,0.813-2.474,1.241-3.772c0.308-0.934,0.626-1.895,0.948-2.866
	c0.312-0.942,0.629-1.898,0.953-2.872c1.659-4.996,3.445-10.349,5.313-15.961c-1.447-9.809-2.825-13.691-4.044-8.445
	c-6.594,28.409-26.209,88.968-26.209,88.968l-47.725,54.562c0,0-74.442-114.249-73.823-120.053
	c0.62-5.804-20.793-118.938-20.793-118.938l-1.183-0.519c0.134,2.929,0.281,6.091,0.443,9.51
	C975.142,689.641,975.172,690.271,975.203,690.926z"/>
<path style="fill:#0A111C;" d="M967.285,527.653c-2.543,9.722-11.476,24.181-13.314,27.096c0.004,0.016,0.009,0.034,0.013,0.05
	c-0.005-0.017-0.008-0.033-0.013-0.05c-0.213,0.338-0.366,0.578-0.366,0.578s-13.008,3.393-16.402,3.393
	c-2.517,0-7.835-0.636-12.722-3.96c-1.383,4.461-3.238,10.24-4.793,16.063c1.554-5.823,3.41-11.603,4.792-16.064
	c-1.7-1.156-3.35-2.626-4.809-4.523c-3.659-4.757-8.963-17.534-12.26-25.984c-5.022,4.705-9.91,10.032-13.757,15.803
	c-13.574,20.361-25.452,27.149-25.452,27.149l-44.365-76.055c-14.679,0.788-52.662,3.496-58.572,10.626
	c-7.353,8.87-59.387,56.847-83.708,65.663c0,0-1.696,10.005,3.393,8.562c4.494-1.274,121.353-50.777,148.672-62.358
	c1.635,4.526,3.572,9.772,5.734,15.376c6.221,16.128,28.845,52.629,34.501,50.781c5.656-1.849,11.311-18.251,21.776-18.251
	c10.463,0,17.816,8.808,17.816,8.646l3.104,25.326c0.003-0.133,0.005-0.278,0.007-0.409c-0.01,0.506-0.018,1.066-0.028,1.606
	c-0.008,0.428-0.015,0.831-0.023,1.28c-0.015,0.856-0.029,1.763-0.044,2.695c-0.003,0.187-0.006,0.368-0.01,0.558
	c-0.136,8.787-0.281,20.774-0.43,35.12c3.11-26.716,7.121-51.181,11.562-53.895c10.181-6.222,16.051-8.461,19.23-4.525
	c11.878,14.705,20.365,82.048,29.034,126.369c-0.023-0.477-0.045-0.912-0.067-1.383c-0.077-1.567-0.152-3.101-0.225-4.604
	c-0.028-0.575-0.058-1.175-0.085-1.74c-0.094-1.956-0.185-3.831-0.272-5.666c-0.03-0.651-0.061-1.289-0.091-1.924
	c-0.162-3.419-0.308-6.581-0.443-9.51c-0.02-0.462-0.044-0.971-0.065-1.42c-0.01-0.22-0.018-0.425-0.028-0.642
	c-0.067-1.498-0.129-2.922-0.187-4.266c-0.009-0.201-0.018-0.411-0.027-0.609c-0.064-1.504-0.123-2.918-0.175-4.211
	c-0.001-0.026-0.002-0.049-0.003-0.076c-0.05-1.251-0.093-2.384-0.131-3.426c-0.004-0.131-0.01-0.263-0.014-0.39
	c-0.037-1.04-0.069-1.987-0.093-2.794c-0.034-1.159-0.088-2.357-0.157-3.582c-0.018-0.298-0.042-0.613-0.061-0.915
	c-0.058-0.929-0.118-1.864-0.194-2.826c-0.035-0.437-0.079-0.89-0.116-1.333c-0.073-0.853-0.146-1.707-0.233-2.581
	c-0.049-0.501-0.106-1.015-0.16-1.523c-0.088-0.839-0.177-1.679-0.276-2.536c-0.063-0.549-0.133-1.109-0.2-1.666
	c-0.102-0.832-0.203-1.666-0.314-2.512c-0.076-0.587-0.158-1.182-0.238-1.774c-0.115-0.842-0.231-1.684-0.353-2.537
	c-0.085-0.595-0.174-1.194-0.263-1.794c-0.129-0.873-0.261-1.748-0.398-2.63c-0.092-0.593-0.186-1.188-0.281-1.785
	c-0.142-0.894-0.287-1.79-0.436-2.692c-0.101-0.605-0.202-1.211-0.305-1.819c-0.149-0.882-0.301-1.766-0.457-2.653
	c-0.113-0.647-0.226-1.293-0.342-1.942c-0.158-0.885-0.319-1.77-0.482-2.657c-0.112-0.608-0.223-1.216-0.337-1.824
	c-0.178-0.953-0.358-1.905-0.542-2.858c-0.109-0.574-0.218-1.148-0.33-1.722c-0.186-0.953-0.373-1.903-0.562-2.854
	c-0.111-0.563-0.222-1.126-0.335-1.688c-0.211-1.05-0.425-2.095-0.639-3.14c-0.093-0.45-0.184-0.902-0.277-1.351
	c-0.213-1.026-0.427-2.044-0.642-3.062c-0.106-0.499-0.211-1.002-0.316-1.498c-0.272-1.274-0.544-2.537-0.818-3.792
	c-0.038-0.178-0.078-0.359-0.116-0.536c-0.646-2.958-1.293-5.853-1.936-8.666c-0.058-0.259-0.117-0.509-0.176-0.767
	c-0.255-1.113-0.509-2.219-0.761-3.303c-0.094-0.406-0.187-0.799-0.281-1.201c-0.034-0.149-0.069-0.298-0.104-0.447l0,0
	c0,0,1.581-29.824,4.974-31.521c3.394-1.697,22.058,28.903,26.017,26.329c1.859-1.209,2.841-5.845,3.482-10.595
	C988.644,559.52,976.781,541.465,967.285,527.653z"/>
<path style="fill:#11192B;" d="M954.736,1037.776l0.001,0l0,0L991.5,998.75c0,0-11.164-203.095-15.715-295.813
	c0.023,0.471,0.044,0.906,0.067,1.383c-8.669-44.321-17.156-111.664-29.034-126.369c-3.178-3.936-9.049-1.697-19.23,4.525
	c-4.441,2.714-8.452,27.179-11.562,53.895c0.149-14.346,0.293-26.333,0.43-35.12c-0.374,24.026-0.809,72.091-1.23,126.79
	c-0.922,119.592-1.777,270.709-1.777,270.709L954.736,1037.776z"/>
<path style="fill:#11192B;" d="M907.41,524.253c3.297,8.449,8.601,21.227,12.26,25.984c1.459,1.897,3.109,3.367,4.809,4.523
	c-1.382,4.461-3.237,10.241-4.792,16.064c1.554-5.823,3.41-11.603,4.793-16.063c4.888,3.324,10.205,3.96,12.722,3.96
	c3.394,0,16.402-3.393,16.402-3.393s0.153-0.24,0.366-0.578c0.005,0.017,0.008,0.033,0.013,0.05
	c-0.004-0.016-0.009-0.033-0.013-0.05c1.838-2.914,10.77-17.373,13.314-27.096c-4.4-6.4-8.294-11.887-10.851-14.746
	c-5.475-6.118-12.02-7.924-16.702-8.388c-0.618-0.062-1.252-0.132-1.797-0.152c-0.227-0.007-0.407-0.001-0.62-0.003
	c-0.599-0.007-1.199-0.012-1.665,0.01c-0.012,0-0.018,0.002-0.03,0.003c-1.012,0.05-1.572,0.132-1.762,0.162
	c-0.034,0.006-0.169,0.024-0.169,0.024s-0.04,0.023-0.044,0.025c-0.027,0.016-0.194,0.113-0.536,0.317
	c-0.007,0.003-0.015,0.008-0.021,0.012c-1.16,0.692-3.921,2.382-7.539,4.86C920.534,513.214,913.877,518.194,907.41,524.253z"/>
<path style="fill:#3F4B60;" d="M868.202,567.205c0,0,11.878-6.787,25.452-27.149c3.847-5.771,8.735-11.098,13.757-15.803
	c6.466-6.059,13.124-11.039,18.141-14.475c-0.006,0.003-0.01,0.006-0.015,0.01c-12.382-11.401-74.64-68.485-77.695-66.448
	c-2.73,1.82-18.461,30.726-27.072,42.551l3.067,5.258L868.202,567.205z"/>
<path style="fill:#3F4B60;" d="M996.645,447.299c-4.626-1.401-42.812,42.086-55.991,57.298c-0.334-0.045-0.604-0.046-0.922-0.077
	c4.681,0.464,11.227,2.27,16.702,8.388c2.557,2.858,6.451,8.346,10.851,14.746c9.496,13.812,21.359,31.867,27.697,37.752
	c1.766,1.64,3.147,2.433,3.872,1.799c4.158-3.639,14.516-71.243,15.289-93.585l-3.701-2.995
	C1010.442,470.625,1002.247,448.996,996.645,447.299z"/>
<path style="fill:#040506;" d="M716.058,2129.078c-8.626-4.625-16.402-9.21-22.058-13.131c-1.414-0.98-2.766-1.891-4.059-2.744
	c-7.002-4.619-12.225-7.522-16.116-10.369c0,0,0,0,0,0c-1.243,2.497-2.458,5.353-3.297,8.433c-2.545,9.332,1.329,26.3-21.394,44.964
	c-7.634,6.271-15.852,13.498-23.608,20.719c9.336-8.321,20.547-16.555,32.275-21.754c15.749-6.98,15.271-21.872,15.271-21.872
	s11.029-8.484,16.119-6.787c5.091,1.697-4.242,14.422-7.943,21.209c-3.701,6.788,11.337-2.545,20.67-7.214
	c9.331-4.669,33.087,10.607,35.632,18.243c2.545,7.635,4.242,15.271,0,16.185c-4.242,0.914-32.239-14.489-35.632-11.188
	c-3.394,3.3-16.968-4.997-23.048,0c-6.079,4.997,9.473,6.032,12.019,11.188c2.545,5.156-9.333,27.082-12.019,32.429
	c-2.685,5.347-9.19,7.38-21.916,8.228c-12.727,0.848-49.207,1.696-56.842,0c-7.59-1.687,5.775-19.193,16.333-29.999
	c-11.323,11.099-20.43,21.226-23.12,26.604c-5.091,10.181-11.029,27.149-5.091,32.239c5.939,5.09,18.665,10.18,18.665,10.18
	s97.565-5.09,103.503-11.029c5.939-5.938,2.546-11.029,14.423-15.271c11.878-4.241,42.42-0.848,48.358-16.119
	c4.987-12.823,3.985-45.307,1.528-57.927c0,0,0,0.001,0,0C761.701,2151.206,736.538,2140.062,716.058,2129.078z"/>
<path style="fill:#040506;" d="M1165.137,2112.965c-9.332,1.697-66.174,39.026-66.174,39.026s-0.682,4.813-1.434,11.698
	c-1.765,16.18-3.922,44.029,1.434,49.385c7.635,7.635,32.239,2.545,36.481,8.484c4.242,5.939,3.393,11.029,10.181,15.271
	c6.787,4.242,28.845,7.635,48.358,11.029c19.513,3.394,57.69,2.545,61.932-5.09s6.787-25.452,0-36.481
	c-6.787-11.029-54.108-52.136-55.475-80.789l0,0C1200.438,2125.498,1174.469,2111.268,1165.137,2112.965z"/>
<path style="fill:#1D2533;" d="M740.115,750.448c0.069,33.905,1.57,86.247,10.161,87.392c12.725,1.696,135.763-0.848,138.307-5.938
	c1.597-3.193,1.293-52.579,0.845-88.952c-16.557-1.901-61.368-6.916-73.394-6.916C803.32,736.033,753.987,747.238,740.115,750.448z"
	/>
<path style="fill:#141A23;" d="M740.234,730.129c-0.07,5.045-0.135,12.125-0.119,20.264c0,0.019,0,0.036,0,0.054l0,0
	c13.872-3.209,63.206-14.414,75.92-14.414c12.026,0,56.837,5.015,73.394,6.916h0.001c-0.085-6.943-0.176-13.4-0.26-18.983
	c-0.006-0.413-0.013-0.808-0.018-1.211c-0.021-1.37-0.042-2.69-0.061-3.937C863.636,722.026,755.816,729.916,740.234,730.129z"/>
<path style="fill:#3F4B60;" d="M738.398,730.095c0.25,0.041,0.934,0.047,1.835,0.034c0,0,0,0,0.001,0
	c15.582-0.213,123.402-8.103,148.856-11.311c3.173-0.401,5.143-0.732,5.411-0.963c2.545-2.183,0-42.058,0-42.058
	s-146.771,5.939-151.013,11.029C739.247,691.917,733.309,729.246,738.398,730.095z"/>
<path style="fill:#1D2533;" d="M1009.023,745.872c0.239-10.121,0.547-18.917,0.771-24.65c-0.001,0.001-0.002,0-0.002,0
	c-0.945,24.243-3.434,103.546,4.406,105.261c9.257,2.025,102.58,25.779,105.972,24.083c3.394-1.697,5.091-16.968,5.091-16.968
	s3.963-47.913,5.93-78.527c-15.038-7.428-41.91-20.135-50.894-20.734C1069.895,733.643,1025.055,742.583,1009.023,745.872z"/>
<path style="fill:#141A23;" d="M1062.482,721.759c-19.668-3.95-42.55-1.683-52.687-0.537c-0.224,5.733-0.532,14.529-0.771,24.65
	c16.032-3.289,60.872-12.229,71.275-11.535c8.984,0.599,35.856,13.306,50.894,20.734c0.001,0,0.001,0,0.001,0
	c0.007-0.107,0.012-0.204,0.019-0.312c0.099-1.545,0.193-3.045,0.281-4.492c0.025-0.422,0.048-0.815,0.073-1.228
	c0.066-1.115,0.13-2.207,0.188-3.249c0.022-0.399,0.043-0.784,0.065-1.172c0.054-0.99,0.103-1.935,0.148-2.843
	c0.018-0.374,0.037-0.753,0.055-1.111c0.049-1.036,0.092-2.008,0.127-2.911c0.005-0.128,0.013-0.277,0.018-0.402
	c0.004-0.114,0.005-0.197,0.009-0.309C1113.961,732.912,1079.968,725.271,1062.482,721.759z"/>
<path style="fill:#0A111C;" d="M1123.849,534.4c-15.271-9.615-25.451-31.313-36.763-32.624
	c-11.312-1.311-24.321-3.546-36.198-10.898c-11.877-7.353-32.805-12.471-32.805-12.471s35.632,32.222,70.133,50.612
	c34.501,18.39,83.111,42.488,88.499,47.124c5.389,4.636,9.019,6.308,10.317,3.656C1188.332,577.148,1139.12,544.015,1123.849,534.4z
	"/>
<path style="fill:#95A7B1;" d="M820.693,485.759l0.032,0.055l0.044,0.077v-0.001c8.611-11.825,24.342-40.731,27.072-42.551
	c3.055-2.037,65.312,55.046,77.695,66.448c0.006-0.003,0.01-0.006,0.015-0.01c3.617-2.478,6.379-4.168,7.539-4.86
	c0.01-0.007,0.01-0.006,0.021-0.012c0.342-0.204,0.509-0.301,0.536-0.317c0.003-0.001,0.042-0.025,0.042-0.025h0.001l-0.409-0.35
	l-76.958-65.964c0,0-2.97-3.818-6.362-5.726c-0.848-0.478-1.724-0.835-2.585-0.985c-0.431-0.075-0.859-0.097-1.277-0.056
	c-2.096,0.205-3.986,1.995-5.047,6.767c-1.272,5.726-4.454,13.839-7.933,21.743c-0.58,1.317-1.168,2.629-1.757,3.922
	C826.061,475.559,820.693,485.759,820.693,485.759z"/>
<path style="fill:#95A7B1;" d="M996.591,437.118c-1.414,1.131-15.13,14.705-28.492,27.997c-1.67,1.661-3.335,3.318-4.97,4.945
	c-11.442,11.395-21.401,21.354-21.401,21.354l-7.691,12.581l-0.346,0.568h0.001c0,0,0.13-0.018,0.168-0.024
	c0.19-0.031,0.75-0.112,1.762-0.162c0.013-0.001,0.018-0.002,0.03-0.003c0.466-0.022,1.066-0.018,1.665-0.01
	c0.217,0.003,0.388-0.005,0.62,0.003c0.545,0.02,1.179,0.09,1.797,0.152c0.317,0.032,0.588,0.033,0.922,0.077
	c13.179-15.212,51.365-58.699,55.991-57.298c5.602,1.696,13.797,23.325,13.797,23.325l3.703,2.997
	c0.032-0.908,0.045-1.728,0.046-2.488c0-0.106,0.002-0.218,0.001-0.321c-0.005-0.764-0.024-1.452-0.068-2.02
	c-0.989-12.867-7.609-27.467-9.248-30.916c-0.234-0.492-0.367-0.758-0.367-0.758s-0.319-0.142-0.84-0.318
	c-0.521-0.177-1.246-0.389-2.058-0.531c-0.407-0.071-0.836-0.123-1.273-0.145c-0.436-0.022-0.88-0.014-1.317,0.04
	c-0.437,0.053-0.868,0.15-1.278,0.305C997.333,436.623,996.944,436.836,996.591,437.118z"/>
<path style="fill:#0C121E;" d="M1132.274,2039.212c1.073-33.031,19.289-14.479,37.771-28.112
	c18.481-13.633-38.844-30.483-37.771-40.97c1.073-10.487-19.737-142.222-23.13-172.765c-2.529-22.764-26.734-79.455-42.414-123.015
	c0-0.001-0.006-0.011-0.006-0.011l0.002-0.001c-5.355-14.878-9.719-28.231-11.879-38.166
	c-8.484-39.025,15.271-139.135,15.621-145.902c0.35-6.767-78.967-68.275-78.967-68.275l112.553,42.435
	c0,0-117.078-70.897-112.553-78.795c4.525-7.898,95.585-56.579,117.644-68.657c22.058-12.077-105.2,37.529-117.644,42.507
	c-12.443,4.978,0-20.242,0-20.242s68.437-35.64,95.585-45.031c27.148-9.392,61.361-32.652,61.361-32.652
	s-27.425,3.018-52.877,12.913c-25.451,9.895-104.068,35.918-104.068,35.918s65.042-44.116,90.494-56.435
	c25.452-12.319,76.355-21.901,76.355-21.901s-32.239-9.896-44.116-10.493c-11.877-0.596-79.748,19.261-88.231,21.137
	c-8.484,1.875-34.501,7.457-34.501,7.457s20.927-27.998,26.018-41.852c5.09-13.855,33.936-50.618,33.936-50.618l-27.149,23.394
	c0,0-69.567,51.259-71.83,50.975c-2.262-0.285-60.518-37.044-72.396-43.688c-10.718-5.995-116.054-25.915-136.507-29.745
	c-0.056,0.09-0.112,0.182-0.168,0.273c17.638,4.932,102.219,28.709,126.495,37.813c27.149,10.181,57.795,48.853,57.795,48.853
	s-42.523-14.917-76.459-28.391c-33.936-13.474-133.006-8.865-133.006-8.865s161.851,73.242,161.851,79.354
	c0,6.113-161.851-44.959-161.851-44.959s100.768,38.847,96.721,57.458c-4.046,18.612-38.204,176.488-38.204,176.488l93.153-159.668
	c0,0-71.265,166.484-83.141,199.279c-11.878,32.796,22.057,50.346,1.695,89.372c-20.1,38.526-38.53,53.885-47.962,61.228
	c-0.007,2.727-0.022,5.489-0.042,8.224c8.269,23.038,55.551,86.886,59.883,107.599c5.09,24.34,0,46.661,0,46.661l-60.221-104.937
	c0,0,11.014,137.439,12.711,173.465c1.696,36.026,0,108.502,0,108.502s-76.355-29.148-88.95-36.241
	c-4.733-2.666-4.892-11.469-3.246-21.418c0,0,0,0,0-0.001c-0.005,0.008-0.008,0.015-0.013,0.024
	c-5.254,10.077-9.093,18.453-10.669,24.87c-0.035,0.142-0.076,0.29-0.109,0.429c-0.337,1.448-0.539,2.779-0.625,4.016
	c-0.013,0.172-0.022,0.343-0.029,0.51c-0.048,1.186,0.031,2.269,0.249,3.244c0.031,0.141,0.076,0.272,0.113,0.408
	c0.261,0.953,0.645,1.811,1.2,2.54c0.061,0.079,0.141,0.143,0.205,0.219c0.615,0.735,1.363,1.372,2.325,1.855
	c0.001,0,0.002,0.002,0.003,0.002c3.393,1.701,8.06,8.268,12.09,16.272c2.014,4.002,3.871,8.363,5.329,12.654
	c3.403,10.013,4.64,19.648,0.681,23.459c-1.697,1.633-3.047,3.243-4.115,4.932c-0.356,0.563-0.681,1.135-0.977,1.72
	c-0.888,1.754-1.517,3.623-1.951,5.712c-0.725,3.48-0.911,7.569-0.865,12.746c0.001,0.018,0.001,0.036,0.001,0.054
	c0.029,3.062,0.138,6.507,0.265,10.429c0.045,1.369,0.09,2.792,0.137,4.282c0.134,4.338,0.482,7.793,1.108,10.648
	c0.626,2.855,1.529,5.11,2.775,7.046c1.245,1.936,2.833,3.553,4.827,5.133c0.388,0.308,0.825,0.615,1.243,0.921
	c3.891,2.846,9.113,5.75,16.116,10.369c1.292,0.853,2.645,1.764,4.059,2.744c5.656,3.921,13.433,8.506,22.058,13.131
	c20.48,10.983,45.643,22.128,58.652,25.22c2.058,0.489,3.911,0.843,5.288,0.892c0.917,0.033,1.668-0.038,2.234-0.225
	c3.196-1.051,5.25-3.963,6.687-8.259c0.387-1.156,0.735-2.402,1.041-3.756c0.567-2.515,1.015-5.338,1.396-8.451
	c0.135-1.101,0.263-2.237,0.384-3.404c0.61-5.836,1.097-12.468,1.803-19.607c1.609-16.247,6.642-21.987,10.234-31.301
	c1.459-3.782,2.686-8.138,3.34-14.053c0.99-8.958-1.918-24.715-4.175-42.284c-0.968-7.529-1.816-15.39-2.188-23.192
	c-0.248-5.201-0.282-10.376,0-15.407c0.566-10.064,2.403-19.555,6.362-27.544c3.959-7.989,7.636-15.693,10.853-23.196
	c2.413-5.628,4.567-11.141,6.388-16.578c0.607-1.812,1.177-3.615,1.707-5.411c1.061-3.592,1.962-7.154,2.682-10.695
	c2.161-10.627,2.692-21.08,0.995-31.634c-3.535-21.991,24.616-130.968,39.287-203.248c4.109-20.239,7.16-37.6,8.162-49.369
	c0.143-1.681,0.335-3.551,0.573-5.596c3.918-33.739,20.214-115.136,34.602-183.901c0.436-2.083,0.87-4.156,1.303-6.215
	c1.296-6.177,2.573-12.234,3.82-18.126c0.831-3.928,1.649-7.783,2.451-11.552c2.804-13.189,5.406-25.316,7.668-35.807
	c0.97-4.496,1.878-8.691,2.712-12.54c0.557-2.566,1.081-4.979,1.569-7.224c0.733-3.367,1.384-6.359,1.945-8.929
	c0.374-1.713,0.707-3.24,0.998-4.565c0.87-3.976,1.349-6.145,1.349-6.145s0.16,0.662,0.463,1.927
	c0.203,0.843,0.47,1.954,0.797,3.317c0.818,3.405,2.011,8.379,3.514,14.65c0.602,2.508,1.252,5.224,1.947,8.131
	c0.696,2.907,1.437,6.004,2.219,9.274c1.173,4.905,2.439,10.2,3.781,15.826c0.895,3.75,1.826,7.649,2.787,11.676
	c2.88,12.084,6.035,25.337,9.348,39.293c2.208,9.304,4.487,18.921,6.803,28.712c2.315,9.791,4.668,19.756,7.022,29.758
	c1.177,5.001,2.355,10.011,3.53,15.012c5.172,22.038,10.272,43.906,14.94,64.147c1.688,7.321,3.323,14.438,4.879,21.26
	c0.489,2.14,0.97,4.253,1.444,6.335c0.947,4.165,1.863,8.209,2.743,12.116c1.32,5.859,2.56,11.409,3.707,16.591
	c0.764,3.454,1.485,6.744,2.161,9.854c3.042,13.993,5.149,24.322,5.933,29.412c2.79,18.099,5.316,32.239,8.277,44.964
	c0.74,3.181,1.506,6.274,2.311,9.319c0.805,3.044,1.648,6.04,2.541,9.027c1.783,5.974,3.763,11.913,6.026,18.134
	c0.566,1.556,1.114,3.383,1.644,5.451c1.061,4.135,2.05,9.229,2.969,15.021c1.149,7.24,2.188,15.571,3.116,24.483
	c0.557,5.347,1.074,10.903,1.55,16.559c0.16,1.885,0.313,3.782,0.465,5.685c0.3,3.806,0.583,7.64,0.848,11.469
	c0.132,1.915,0.261,3.828,0.384,5.737c1.733,26.713,2.598,52.388,2.598,65.84c0,30.745-15.836,46.292,0,56.618
	c6.929,4.518,15.59,6.725,22.194,9.368c2.83,1.132,5.283,2.345,7.058,3.853c1.777,1.509,2.877,3.313,3.003,5.63
	c0.041,0.772-0.025,1.601-0.21,2.495c-0.371,1.788-1.219,3.835-2.634,6.207c-1.414,2.371-2.581,4.491-3.539,6.413
	c-0.959,1.922-1.71,3.646-2.293,5.228c-3.499,9.485-0.954,13.799-0.954,24.6c0,14.402-11.312,14.402-9.049,43.813
	c0.848,11.03,6.15,19.576,12.446,27.012c4.198,4.958,8.838,9.422,12.895,13.801c6.084,6.567,10.856,12.941,10.856,20.493l0,0l0,0
	c0,2.59-0.193,5.304-0.493,8.072c-0.022,0.201-0.052,0.404-0.075,0.605c-0.288,2.531-0.662,5.101-1.078,7.67
	c-0.187,1.154-0.377,2.278-0.573,3.426c-0.047,0.272-0.093,0.539-0.139,0.81c-0.756,4.384-1.526,8.702-2.043,12.643
	c-0.001,0.006-0.002,0.012-0.002,0.018h0.001l56.149-41.95C1148.446,2102.784,1131.202,2072.242,1132.274,2039.212z"/>
<path style="fill:#2C3647;" d="M798.633,1303.957c0,0-59.387-27.558-69.567-28.378c-10.181-0.82-10.839,307.227-10.839,307.227
	s43.077-83.112,49.865-118.376C774.879,1429.165,798.633,1303.957,798.633,1303.957z"/>
<path style="fill:#2C3647;" d="M730.763,1175.498c-0.545,0.496-1.173,0.925-1.85,1.314c-0.233,0.134-0.497,0.24-0.745,0.362
	c-0.469,0.23-0.945,0.453-1.462,0.641c-0.334,0.122-0.686,0.225-1.039,0.33c-0.476,0.141-0.962,0.273-1.47,0.385
	c-0.414,0.092-0.836,0.174-1.269,0.247c-0.477,0.079-0.965,0.144-1.463,0.201c1.588,7.664,3.642,14.148,5.905,12.64
	c5.09-3.394,105.599-0.561,125.561,16.687c19.963,17.248,44.116,16.142,44.116,16.142s-27.133-30.452-156.336-61.316
	C737.631,1167.79,734.144,1172.424,730.763,1175.498z"/>
<path style="fill:#2C3647;" d="M740.111,1642.958c-0.864-11.877,21.532-47.453,36.634-64.26
	c15.102-16.807-6.956-53.395-6.956-53.395c0-1.119-52.219,75.236-51.561,95.598c0.658,20.361,7.445,88.232,7.445,88.232
	l-19.264-25.452l-27.539,251.123l45.46-52.6l15.781-179.858c0,0,0.236-13.105,0.338-27.264c0.02-2.735,0.035-5.497,0.042-8.224
	C740.515,1656.808,740.433,1647.396,740.111,1642.958z"/>
<path style="fill:#2C3647;" d="M1037.879,1372.309c-10.181,12.74,94.395,113.907,94.395,113.907l-61.806-19.722
	c0,0,26.799,35.394,33.585,45.694c6.787,10.3-30.21,137.557-30.21,137.557l87.9-67.33l-17.34-278.458
	C1144.403,1303.957,1048.06,1359.568,1037.879,1372.309z"/>
<path style="fill:#2C3647;" d="M1066.73,1674.349c0.142,0.24,64.473,109.451,66.168,117.925
	c1.697,8.484,15.548,173.071,15.548,173.071l32.412-42.909l-32.412-308.323l-81.72,60.224l-0.002,0.001
	C1066.724,1674.338,1066.73,1674.349,1066.73,1674.349z"/>
<path style="fill:#2C3647;" d="M853.237,1153.824c-1.139,2.983-2.434,5.883-3.754,7.871c-0.265,0.398-0.529,0.759-0.794,1.077
	c-0.084,0.1-0.216,0.183-0.314,0.279c21.009,5.934,37.319,11.177,41.412,14.143c14.047,10.181,62.687,38.178,62.687,38.178
	s-15.554-36.086-17.25-42.646c-0.793-3.064-36.863-13.595-80.37-23.47c-0.11,0.333-0.217,0.661-0.333,1.003
	C854.124,1151.425,853.693,1152.631,853.237,1153.824z"/>
<path style="fill:#211F28;" d="M986.975,1109.747c0,0,22.795-0.534,25.027-3.393c1.831-2.344-8.458-41.309-12.227-55.282
	c-6.242,0.355-12.433,0.642-18.551,0.877C982.39,1063.231,986.258,1100.766,986.975,1109.747z"/>
<path style="fill:#211F28;" d="M669.68,988.852c-2.834,1.288-5.351,9.243-7.417,20.05c-2.677,14.009-4.588,32.809-5.424,48.247
	c0.084-1.547,0.175-3.118,0.281-4.724c2.122,8.828,4.045,19.062,4.013,23.246c-0.064,8.484-1.068,8.484,29.474,12.588
	c30.542,4.104,18.664-14.285,20.927-21.387c2.263-7.101-7.352-57.942-11.877-77.285c-0.383-1.634-0.564-2.984-0.663-4.214
	c0.052,0.001,0.101,0.004,0.153,0.005c-0.276-0.006-0.554-0.008-0.832-0.012C687.025,985.203,674.845,986.505,669.68,988.852z"/>
<path style="fill:#211F28;" d="M718.228,1111.869c-4.052-6.222-38.933,1.696-41.761,4.242c2.545-0.848-8.484,46.661,3.394,53.449
	c3.741,2.137,9.251,4.358,15.333,6.133c4.977,1.453,10.321,2.578,15.407,3.137c2.722-3.771,7.074-7.845,9.416-10.967
	C725.108,1161.075,722.28,1118.09,718.228,1111.869z"/>
<path style="fill:#211F28;" d="M790.15,1104.516c-2.829-9.05-33.37,0.565-39.026-3.71c-5.656-4.275-0.849,45.846-0.849,45.846
	s-0.106,0.209-0.257,0.505c0.152-0.296,0.258-0.505,0.258-0.505s-0.849,11.029,9.332,14.423c7.003,2.334,18.77,3.44,26.845,2.813
	c0.487-1.96,1.159-4.05,2-6.202C791.926,1148.805,792.978,1113.565,790.15,1104.516z"/>
<path style="fill:#211F28;" d="M845.295,1011.759c-10.181-0.848-26.301,0-32.239,2.545c-5.939,2.545-8.484,6.787-8.484,6.787
	c0,0.003,0.283,36.481,3.065,48.358c2.231,9.525,23.471,5.587,34.992,1.007c-1.617-17.634-2.844-32.839-1.721-38.901
	c3.248-17.534,22.203-12.161,22.203-12.161C858.87,1017.698,855.476,1012.608,845.295,1011.759z"/>
<path style="fill:#211F28;" d="M753.669,1007.517c-3.393,3.393-18.664,4.242-18.664,4.242c1.45,3.435,2.545,53.165,7.636,60.518
	c5.09,7.353,41.57,4.129,46.661,0.736c5.09-3.393-3.11-47.68-5.373-59.557c-0.445-2.335-0.551-4.173-0.371-5.611
	C771.414,1006.034,755.963,1005.224,753.669,1007.517z"/>
<path style="fill:#211F28;" d="M890.404,1051.967c-11.056-0.388-20.214-0.848-26.899-1.233c0.002-0.032,0.003-0.062,0.005-0.094
	c-0.006,0.003-0.011,0.007-0.018,0.01c-0.199,4.318-0.425,8.803-0.702,13.579c-0.427,7.34-0.924,15.016-1.441,22.563
	c-0.258,3.774-0.522,7.514-0.786,11.164c-0.041,0.578-0.083,1.137-0.125,1.71c0.885,1.509,2.075,2.811,3.707,3.719
	c9.147,5.09,23.286,10.18,26.114,7.918C892.693,1109.357,890.942,1064.489,890.404,1051.967z"/>
<path style="fill:#211F28;" d="M1145.703,1095.066c-6.018,4.36-7.819,41.689-7.484,58.656c0.336,16.968-4.56,28.672-1.279,32.805
	c0.892,1.123,1.69,2.597,2.194,4.136c6.838-0.033,14.384-0.671,21.761,0.106c2.493,0.263,4.645,0.31,6.65,0.262
	c10.966-0.265,15.347-4.913,19.65-11.784c5.09-8.128,0.848-91.982,0.848-91.982
	C1179.842,1090.376,1151.721,1090.707,1145.703,1095.066z"/>
<path style="fill:#211F28;" d="M1196.444,1080.118c0,0,0.001,0,0.001-0.001c0.318-0.441,0.69-0.852,0.931-1.335
	c0.301-0.6,0.466-2.026,0.525-4.043c0.3-10.35-2.335-36.849-5.472-54.179c-1.436-7.93-2.976-13.943-4.385-15.588
	c-2.941-3.431-8.767-5.128-16.064-5.815c-3.164-0.298-6.649-0.367-10.265-0.336c-1.195,0.526-7.328,41.1-7.891,49.898
	c-0.566,8.854-3.959,34.895,2.263,35.448c6.221,0.554,36.198-2.274,41.288-5.385
	C1197.133,1079.266,1196.762,1079.676,1196.444,1080.118z"/>
<path style="fill:#211F28;" d="M1132.142,1004.429c-0.607-0.509-1.216-1.019-1.894-1.551c-2.163-1.7-4.667-3.496-7.531-5.258
	c-6.902-4.248-18.894-2.719-29.262-0.426c1.153,11.312-5.69,61.305-4.673,66.488c1.131,5.768,22.624,10.633,29.976,9.333
	c7.352-1.302,14.036-2.526,19.46-5.873c5.425-3.347,6.715-10.358,7.484-12.792c0.77-2.433-7.184-37.203-6.018-42.59
	C1139.685,1011.759,1137.057,1008.548,1132.142,1004.429z"/>
<path style="fill:#211F28;" d="M1043.664,1009.862c-9.303,2.946-19.755,6.947-27.346,9.399c2.955,2.043,5.865,5.462,6.856,11.162
	c0.959,5.52,1.513,23.506,2.306,42.718c5.47-0.073,13.722,0.333,19.751-0.128c9.615-0.736,24.32,0.17,27.714-9.333
	c3.393-9.503,3.021-46.251,2.263-51.073c0,0-4.243-2.546-11.878-5.939C1060.161,1005.26,1052.441,1007.083,1043.664,1009.862z"/>
<path style="fill:#AE8762;" d="M897.047,1043.998c0,0-0.165,3.105-0.38,8.162c-0.044,1.017-0.088,2.094-0.135,3.262
	c2.858,1.26,6.161,2.696,9.734,4.228c0.291-2.925,0.618-4.899,0.962-5.472c2.545-4.242,60.236-4.242,60.236-4.242
	c2.188,1.823,3.276,16.819,3.471,33.903c3.298,0.944,6.466,1.778,9.424,2.45c0.146,3.127,0.266,6.292,0.355,9.444
	c-0.47-16.708-1.823-33.793-3.182-43.648c-0.583-4.221-1.166-7.118-1.68-8.087C972.553,1037.776,897.047,1043.998,897.047,1043.998z
	"/>
<path style="fill:#7C573C;" d="M970.935,1083.839c0.259,22.662-1.054,49.002-3.471,53.189c-4.242,7.342-47.55-0.454-56.034,0.099
	c-7.339,0.478-7.028-58.73-5.164-77.476c-3.573-1.532-6.876-2.968-9.734-4.228l0,0c0,0.007,0,0.015-0.001,0.022
	c-0.014,0.361-0.029,0.751-0.044,1.126c-0.023,0.59-0.046,1.185-0.069,1.806c-0.015,0.399-0.03,0.811-0.045,1.223
	c-0.022,0.631-0.046,1.275-0.068,1.934c-0.016,0.45-0.031,0.901-0.047,1.364c-0.03,0.879-0.059,1.782-0.088,2.703
	c-0.007,0.208-0.014,0.405-0.02,0.615c-0.035,1.148-0.07,2.327-0.104,3.527c-0.011,0.41-0.022,0.83-0.033,1.244
	c-0.022,0.824-0.044,1.656-0.065,2.5c-0.012,0.5-0.025,1.004-0.036,1.51c-0.019,0.808-0.037,1.623-0.054,2.444
	c-0.011,0.506-0.021,1.01-0.031,1.522c-0.026,1.294-0.049,2.599-0.069,3.919c-0.002,0.113-0.003,0.227-0.004,0.341
	c-0.018,1.218-0.033,2.445-0.047,3.677c-0.005,0.458-0.008,0.918-0.012,1.378c-0.009,0.938-0.015,1.876-0.02,2.817
	c-0.003,0.479-0.006,0.959-0.007,1.438c-0.005,0.992-0.005,1.982-0.005,2.973c0.001,0.4,0,0.8,0,1.198
	c0.005,1.354,0.011,2.701,0.024,4.044c0.003,0.328,0.007,0.652,0.011,0.979c0.011,1.029,0.025,2.051,0.042,3.068
	c0.007,0.46,0.016,0.917,0.025,1.374c0.018,0.922,0.039,1.834,0.061,2.741c0.011,0.434,0.021,0.87,0.034,1.3
	c0.034,1.201,0.073,2.389,0.118,3.556c0.003,0.092,0.005,0.186,0.01,0.278c0.049,1.267,0.106,2.506,0.168,3.723
	c0.018,0.336,0.037,0.662,0.055,0.994c0.048,0.868,0.099,1.722,0.154,2.559c0.026,0.393,0.053,0.783,0.08,1.169
	c0.059,0.828,0.123,1.635,0.191,2.427c0.026,0.3,0.049,0.61,0.075,0.905c0.097,1.063,0.2,2.094,0.312,3.079
	c0.017,0.153,0.037,0.293,0.055,0.445c0.097,0.822,0.199,1.613,0.308,2.374c0.041,0.287,0.086,0.561,0.128,0.839
	c0.094,0.614,0.194,1.202,0.298,1.768c0.047,0.26,0.096,0.522,0.145,0.772c0.073,0.367,0.149,0.717,0.227,1.061
	c0.002,0.011,0.005,0.021,0.008,0.033c0.051,0.226,0.104,0.45,0.156,0.665c0.033,0.135,0.064,0.284,0.098,0.414
	c0.172,0.661,0.355,1.261,0.547,1.807c0.049,0.14,0.102,0.255,0.153,0.387c0.148,0.385,0.301,0.741,0.46,1.057
	c0.072,0.142,0.145,0.273,0.22,0.401c0.156,0.267,0.318,0.496,0.484,0.697c0.072,0.088,0.144,0.186,0.22,0.261
	c0.243,0.241,0.494,0.432,0.759,0.529c9.332,3.394,65.105,6.46,74.563,0c0.312-0.213,0.604-0.522,0.882-0.9
	c0.093-0.126,0.174-0.301,0.264-0.444c0.178-0.288,0.355-0.579,0.52-0.935c0.097-0.212,0.186-0.465,0.279-0.699
	c0.141-0.359,0.284-0.72,0.414-1.131c0.09-0.28,0.172-0.59,0.256-0.892c0.12-0.434,0.239-0.876,0.349-1.356
	c0.078-0.342,0.153-0.702,0.226-1.065c0.102-0.504,0.2-1.023,0.293-1.566c0.066-0.39,0.13-0.787,0.191-1.196
	c0.089-0.591,0.173-1.203,0.251-1.832c0.052-0.406,0.102-0.811,0.149-1.232c0.078-0.698,0.149-1.422,0.217-2.159
	c0.037-0.403,0.076-0.799,0.109-1.213c0.071-0.85,0.131-1.73,0.188-2.624c0.022-0.329,0.046-0.648,0.065-0.983
	c0.065-1.11,0.12-2.252,0.167-3.418c0.006-0.152,0.015-0.297,0.021-0.449c0.213-5.516,0.239-11.593,0.13-17.829
	c-0.001-0.01,0-0.018-0.001-0.028c-0.028-1.555-0.064-3.119-0.107-4.687c-0.001-0.012-0.001-0.025-0.001-0.037
	c-0.089-3.152-0.209-6.317-0.355-9.444C977.401,1085.617,974.233,1084.783,970.935,1083.839z"/>
<path style="fill:#211F28;" d="M911.43,1137.126c8.484-0.553,51.792,7.243,56.034-0.099c2.418-4.187,3.731-30.527,3.471-53.189
	c-0.195-17.083-1.284-32.08-3.471-33.903c0,0-57.691,0-60.236,4.242c-0.344,0.573-0.671,2.546-0.962,5.472
	C904.401,1078.396,904.09,1137.604,911.43,1137.126z"/>
<path style="fill:#100F13;" d="M718.228,1111.869c4.052,6.221,6.88,49.207,1.789,55.993c-2.346,3.127-6.711,7.211-9.432,10.988
	c1.927,0.215,3.805,0.334,5.621,0.365c0.192,0.003,0.392,0.017,0.585,0.018c0.612,0.003,1.197-0.026,1.79-0.046
	c0.463-0.016,0.927-0.028,1.377-0.059c0.51-0.035,1-0.093,1.492-0.149c0.006-0.001,0.011-0.001,0.015-0.002
	c0.498-0.057,0.986-0.122,1.463-0.201c0.433-0.072,0.855-0.156,1.269-0.247c0.508-0.111,0.994-0.243,1.47-0.385
	c0.353-0.105,0.705-0.208,1.039-0.33c0.517-0.188,0.993-0.411,1.462-0.641c0.247-0.122,0.512-0.229,0.745-0.362
	c0.677-0.389,1.305-0.818,1.85-1.314c9.332-8.484,19.513-28.845,19.513-28.845s-4.807-50.121,0.849-45.846
	c5.656,4.275,36.197-5.34,39.026,3.71c2.828,9.049,1.776,44.289-1.698,53.17c-0.845,2.162-1.523,4.263-2.009,6.231
	c0.854-0.066,1.654-0.155,2.415-0.259c0.21-0.029,0.399-0.066,0.602-0.097c0.529-0.084,1.033-0.177,1.501-0.282
	c0.213-0.047,0.416-0.098,0.615-0.151c0.428-0.112,0.815-0.237,1.175-0.371c0.154-0.058,0.322-0.111,0.463-0.173
	c0.463-0.201,0.872-0.417,1.178-0.661c1.591-1.273,3.181-2.784,4.548-4.176c2.278-2.32,3.935-4.308,3.935-4.308v0.001
	c0,0.004,0.85,11.877,10.181,12.725c2.916,0.265,7.075,0.53,11.546,0.614c1.788,0.033,3.625,0.038,5.453,0.002
	c1.828-0.036,3.646-0.113,5.393-0.241c3.497-0.258,6.714-0.724,9.177-1.493c1.846-0.576,3.268-1.321,4.063-2.276
	c0.265-0.319,0.53-0.68,0.794-1.077c1.32-1.988,2.615-4.888,3.754-7.871c0.456-1.193,0.887-2.399,1.284-3.566
	c0.117-0.341,0.223-0.67,0.333-1.003c1.401-4.222,2.318-7.693,2.318-7.693s0.394-4.674,0.992-12.134
	c0.001-0.011,0.002-0.023,0.002-0.034c1.893,0.475,3.748,0.98,5.691,1.413c1.206,0.269,2.445,0.506,3.669,0.759
	c2.761,0.571,5.554,1.113,8.399,1.605c1.39,0.241,2.786,0.472,4.194,0.694c2.911,0.46,5.861,0.878,8.838,1.26
	c1.252,0.161,2.488,0.336,3.75,0.484c1.806,0.211,3.651,0.365,5.477,0.549c-0.078-0.344-0.154-0.694-0.227-1.061
	c-0.05-0.25-0.098-0.512-0.145-0.772c-0.104-0.566-0.204-1.154-0.298-1.768c-0.043-0.278-0.087-0.551-0.128-0.839
	c-0.109-0.76-0.212-1.552-0.308-2.374c-0.018-0.152-0.038-0.292-0.055-0.445c-0.112-0.985-0.216-2.016-0.312-3.079
	c-0.026-0.295-0.05-0.604-0.075-0.905c-0.067-0.792-0.132-1.599-0.191-2.427c-0.028-0.386-0.054-0.776-0.08-1.169
	c-0.055-0.837-0.106-1.691-0.154-2.559c-0.018-0.332-0.037-0.658-0.055-0.994c-0.062-1.218-0.119-2.456-0.168-3.723
	c-0.005-0.092-0.006-0.186-0.01-0.278c-0.045-1.167-0.083-2.354-0.118-3.556c-0.013-0.431-0.023-0.866-0.034-1.3
	c-0.023-0.907-0.044-1.82-0.061-2.741c-0.009-0.457-0.018-0.913-0.025-1.374c-0.017-1.016-0.031-2.039-0.042-3.068
	c-0.003-0.327-0.008-0.651-0.011-0.979c-0.013-1.342-0.019-2.69-0.024-4.044c0-0.399,0.001-0.799,0-1.198
	c0-0.991,0-1.981,0.005-2.973c0.001-0.48,0.004-0.959,0.007-1.438c0.006-0.942,0.012-1.879,0.02-2.817
	c0.004-0.46,0.008-0.92,0.012-1.378c0.014-1.232,0.029-2.459,0.047-3.677c0.002-0.114,0.003-0.228,0.004-0.341
	c0.02-1.32,0.043-2.625,0.069-3.919c0.01-0.513,0.021-1.014,0.031-1.522c0.017-0.822,0.035-1.636,0.054-2.444
	c0.011-0.507,0.023-1.009,0.036-1.51c0.021-0.844,0.042-1.675,0.065-2.5c0.012-0.416,0.021-0.834,0.033-1.244
	c0.034-1.201,0.068-2.379,0.104-3.527c0.006-0.21,0.014-0.406,0.02-0.615c0.029-0.92,0.058-1.823,0.088-2.703
	c0.016-0.465,0.031-0.912,0.047-1.364c0.023-0.659,0.046-1.303,0.068-1.934c0.015-0.414,0.03-0.822,0.045-1.223
	c0.023-0.621,0.046-1.217,0.069-1.806c0.015-0.376,0.029-0.763,0.044-1.126c0.001-0.007,0.001-0.015,0.001-0.022l0,0
	c0.047-1.168,0.092-2.245,0.135-3.262c-2.103-0.063-4.277-0.123-6.262-0.193l0,0c0.538,12.522,2.288,57.39-0.144,59.336
	c-2.828,2.262-16.968-2.828-26.114-7.918c-1.632-0.908-2.822-2.21-3.707-3.719c0.042-0.573,0.083-1.132,0.125-1.71
	c0.264-3.65,0.528-7.391,0.786-11.164c0.518-7.546,1.014-15.223,1.441-22.563c0.427-7.339,0.784-14.341,1.025-20.54
	c0.181-4.648,0.295-8.844,0.323-12.39c0.01-1.182,0.009-2.292-0.001-3.322c-0.053-5.152-0.363-8.317-1.026-8.582
	c0,0-18.955-5.373-22.203,12.161c-1.123,6.061,0.104,21.267,1.721,38.901c-11.521,4.58-32.761,8.518-34.992-1.007
	c-2.782-11.877-3.065-48.355-3.065-48.358v-0.001c0,0-0.036-1.23-0.607-2.878c-0.785-2.264-2.61-5.338-7.03-7.302
	c-0.567-0.252-1.303-0.503-2.121-0.752c-0.222-0.068-0.47-0.134-0.708-0.201c-0.681-0.192-1.414-0.381-2.215-0.568
	c-0.243-0.057-0.478-0.113-0.732-0.169c-2.236-0.494-4.821-0.962-7.602-1.377l0,0l0,0c-0.18,1.438-0.074,3.276,0.371,5.611
	c2.263,11.877,10.463,56.164,5.373,59.557c-5.091,3.393-41.571,6.617-46.661-0.736c-5.09-7.353-6.185-57.084-7.636-60.518
	c0,0-0.106-0.278-0.308-0.775c-1.415-3.48-7.539-17.677-14.962-22.131c-0.5-0.3-1.096-0.576-1.751-0.835
	c-0.216-0.085-0.472-0.16-0.704-0.241c-0.469-0.164-0.948-0.326-1.476-0.472c-0.315-0.087-0.655-0.166-0.99-0.247
	c-0.504-0.122-1.017-0.241-1.561-0.349c-0.386-0.077-0.786-0.149-1.192-0.219c-0.548-0.095-1.111-0.183-1.691-0.266
	c-0.435-0.062-0.87-0.123-1.32-0.178c-0.599-0.074-1.215-0.137-1.84-0.198c-0.467-0.046-0.927-0.094-1.406-0.134
	c-0.658-0.054-1.333-0.095-2.01-0.136c-0.471-0.029-0.932-0.065-1.411-0.087c-1.064-0.051-2.145-0.088-3.237-0.111
	c-0.052-0.001-0.101-0.004-0.153-0.005c0.099,1.231,0.281,2.581,0.663,4.214c4.525,19.344,14.14,70.184,11.877,77.285
	c-2.262,7.101,9.615,25.491-20.927,21.387c-30.542-4.105-29.538-4.105-29.474-12.588c0.032-4.184-1.891-14.418-4.013-23.246
	c-0.105,1.606-0.197,3.178-0.281,4.724c-0.016,0.304-0.032,0.601-0.048,0.902c-0.07,1.342-0.131,2.657-0.184,3.939
	c-0.009,0.207-0.019,0.418-0.027,0.622c-0.057,1.463-0.104,2.883-0.139,4.247c-0.006,0.198-0.007,0.382-0.012,0.577
	c-0.026,1.125-0.043,2.208-0.053,3.252c-0.003,0.324-0.006,0.643-0.007,0.958c-0.005,1.029-0.002,2.014,0.012,2.947
	c0.002,0.155,0.001,0.322,0.004,0.473c0.018,1.051,0.049,2.022,0.09,2.93c0.011,0.227,0.025,0.43,0.036,0.647
	c0.037,0.682,0.082,1.316,0.134,1.9c0.018,0.205,0.036,0.414,0.056,0.605c0.073,0.703,0.154,1.349,0.253,1.873
	c1.114,5.939,4.5,13.176,8.17,19.369c4.721,7.961,9.91,14.195,11.342,13.718C679.294,1113.565,714.176,1105.647,718.228,1111.869z"
	/>
<path style="fill:#D0CED8;" d="M669.539,1069.589c0,6.372,4.178,11.539,9.331,11.539c5.154,0,9.333-5.166,9.333-11.539
	c0-6.373-4.178-11.538-9.333-11.538C673.717,1058.051,669.539,1063.217,669.539,1069.589z"/>
<path style="fill:#D0CED8;" d="M760.254,1054.349c-4.169,0-7.547,4.178-7.547,9.333c0,5.154,3.379,9.332,7.547,9.332
	c4.169,0,7.548-4.178,7.548-9.332C767.801,1058.527,764.422,1054.349,760.254,1054.349z"/>
<path style="fill:#D0CED8;" d="M821.823,1048.718c-4.169,0-7.548,4.178-7.548,9.333c0,5.154,3.379,9.333,7.548,9.333
	c4.169,0,7.548-4.178,7.548-9.333C829.371,1052.896,825.992,1048.718,821.823,1048.718z"/>
<path style="fill:#100F13;" d="M1197.375,1078.781c-5.09,3.111-35.067,5.939-41.288,5.385c-6.222-0.553-2.829-26.594-2.263-35.448
	c0.565-8.832,6.75-49.725,7.909-49.929c-2.48,0.028-5.012,0.099-7.625,0.244c-1.086,0.061-2.07,0.19-3,0.353
	c-0.297,0.052-0.564,0.122-0.847,0.185c-0.609,0.133-1.195,0.281-1.735,0.455c-0.277,0.089-0.543,0.182-0.802,0.281
	c-0.501,0.19-0.971,0.397-1.412,0.618c-0.21,0.105-0.427,0.204-0.623,0.315c-0.518,0.294-0.992,0.606-1.424,0.935
	c-0.069,0.053-0.151,0.098-0.217,0.151c-0.496,0.394-0.932,0.811-1.322,1.238c-0.093,0.101-0.169,0.205-0.256,0.308
	c-0.283,0.335-0.547,0.672-0.776,1.015c-0.084,0.127-0.161,0.251-0.239,0.378c-0.206,0.337-0.393,0.672-0.553,1.006
	c-0.052,0.106-0.106,0.211-0.153,0.316c-0.184,0.412-0.343,0.82-0.47,1.211c-0.003,0.01-0.009,0.02-0.011,0.03
	c0,0.002,0,0.003,0,0.004c-0.162,1.469-0.347,2.835-0.583,3.929c-1.166,5.386,6.787,40.157,6.018,42.59
	c-0.769,2.433-2.059,9.445-7.484,12.792c-5.424,3.347-12.108,4.571-19.46,5.873c-7.353,1.301-28.845-3.564-29.976-9.333
	c-1.017-5.183,5.826-55.176,4.673-66.488l0,0c-0.008,0.002-0.016,0.004-0.024,0.006c-1.408,0.312-2.776,0.639-4.107,0.966
	c-0.317,0.078-0.621,0.153-0.932,0.231c-1.784,0.446-3.432,0.875-4.984,1.284c-0.445,0.117-0.885,0.232-1.307,0.343
	c-0.427,0.113-0.871,0.227-1.273,0.332c-0.984,0.256-1.903,0.49-2.707,0.68c-0.025,0.006-0.061,0.016-0.086,0.022
	c-0.003,0.001-0.006,0.003-0.009,0.004c-0.686,0.163-1.23,0.463-1.69,0.837c-0.151,0.122-0.25,0.286-0.38,0.427
	c-0.27,0.295-0.525,0.598-0.71,0.958c-0.101,0.196-0.175,0.41-0.254,0.621c-0.137,0.365-0.256,0.732-0.334,1.13
	c-0.046,0.232-0.084,0.465-0.113,0.704c-0.05,0.411-0.08,0.816-0.087,1.232c-0.003,0.231-0.012,0.46-0.006,0.689
	c0.013,0.431,0.042,0.838,0.083,1.245c0.02,0.197,0.032,0.403,0.057,0.591c0.052,0.413,0.113,0.775,0.178,1.128
	c0.108,0.591,0.217,1.119,0.301,1.458l0.137,0.526c0.758,4.822,1.13,41.571-2.263,51.073c-3.393,9.502-18.099,8.596-27.714,9.333
	c-6.03,0.461-14.281,0.055-19.751,0.128c-0.793-19.212-1.347-37.198-2.306-42.718c-0.991-5.7-3.902-9.119-6.856-11.162l-0.001,0
	c-1.159,0.375-2.241,0.706-3.258,1.002c-0.1,0.028-0.209,0.064-0.307,0.092c-1.057,0.303-2.027,0.556-2.87,0.736
	c-2.227,0.478-3.917,1.462-5.2,2.763c-0.076,0.077-0.131,0.17-0.204,0.249c-1.638,1.776-2.579,4.079-3.106,6.487
	c-0.376,1.718-0.556,3.48-0.629,5.133c-0.077,1.745-0.046,3.363-0.036,4.664c0.004,0.433,0.005,0.832-0.001,1.188
	c-0.012,0.712-0.051,1.256-0.157,1.574l1.76,7.763c-0.843,0.05-1.693,0.112-2.535,0.16v0.001
	c3.77,13.973,14.059,52.938,12.227,55.282c-2.232,2.86-25.027,3.393-25.027,3.393c-0.718-8.981-4.585-46.516-5.751-57.798l0,0
	c-1.235,0.047-2.465,0.093-3.692,0.136c1.359,9.855,2.711,26.941,3.182,43.648c0,0.012,0,0.025,0.001,0.037
	c0.044,1.569,0.08,3.131,0.107,4.687c0.001,0.01,0,0.018,0.001,0.028c0.109,6.237,0.083,12.313-0.13,17.829
	c-0.006,0.153-0.015,0.298-0.021,0.449c-0.048,1.166-0.102,2.309-0.167,3.418c-0.019,0.335-0.043,0.654-0.065,0.983
	c-0.057,0.894-0.117,1.774-0.188,2.624c-0.033,0.414-0.072,0.81-0.109,1.213c-0.067,0.737-0.139,1.462-0.217,2.159
	c-0.047,0.421-0.098,0.827-0.149,1.232c-0.079,0.63-0.162,1.241-0.251,1.832c-0.061,0.409-0.124,0.806-0.191,1.196
	c-0.093,0.544-0.191,1.062-0.293,1.566c-0.073,0.363-0.148,0.723-0.226,1.065c-0.034,0.148-0.063,0.318-0.098,0.463
	c2.813-0.24,5.628-0.476,8.386-0.764c1.286-0.134,2.54-0.287,3.813-0.432c2.864-0.325,5.696-0.67,8.482-1.045
	c1.397-0.188,2.777-0.38,4.153-0.581c2.735-0.398,5.415-0.824,8.055-1.269c1.189-0.2,2.394-0.391,3.563-0.6
	c1.684-0.302,3.272-0.641,4.909-0.961c0.002,0.008,0.003,0.016,0.005,0.023c0.312,1.652,0.714,3.525,1.215,5.432
	c0.081,0.307,0.165,0.612,0.251,0.92c0.271,0.972,0.563,1.943,0.887,2.88c0.755,2.187,1.657,4.202,2.717,5.687
	c0.53,0.742,1.537,1.193,2.903,1.41c9.557,1.519,36.653-8.41,40.365-9.894c0.789-0.316,1.355-1.126,1.831-2.1
	c0.403-0.826,0.725-1.778,0.953-2.86c0.065-0.313,0.141-0.605,0.194-0.928c0.719-4.328,0.415-9.384,0.415-9.384l0,0.003
	c0.002,0.009,0.638,2.547,2.015,5.405c1.379,2.863,3.5,6.045,6.469,7.318c0.432,0.185,1.01,0.305,1.657,0.393
	c2.605,0.355,6.773-0.017,11.283-0.703c0.297-0.045,0.592-0.091,0.892-0.139c2.504-0.399,5.067-0.878,7.505-1.373
	c0.49-0.099,0.967-0.197,1.443-0.297c1.181-0.247,2.303-0.491,3.37-0.729c4.511-1.006,7.784-1.849,7.784-1.849v0.001
	c0,0.001-1.073,14.371-0.503,28.605c0.127,3.164,0.335,6.321,0.653,9.311c0.798,7.477,2.289,13.918,4.941,16.834
	c0.556,0.611,1.151,1.154,1.777,1.648c0.192,0.151,0.404,0.27,0.602,0.411c0.45,0.32,0.902,0.637,1.384,0.906
	c0.244,0.137,0.507,0.248,0.76,0.372c0.464,0.23,0.93,0.457,1.42,0.647c0.272,0.106,0.557,0.193,0.837,0.288
	c0.503,0.17,1.009,0.335,1.534,0.472c0.28,0.073,0.566,0.134,0.852,0.198c0.557,0.124,1.119,0.239,1.698,0.333
	c0.274,0.044,0.55,0.083,0.828,0.121c0.627,0.086,1.264,0.16,1.913,0.216c0.236,0.02,0.474,0.04,0.714,0.058
	c0.737,0.053,1.485,0.093,2.247,0.118c0.156,0.006,0.313,0.012,0.471,0.016c0.911,0.024,1.833,0.034,2.772,0.029
	c-0.504-1.539-1.301-3.013-2.194-4.136c-3.28-4.132,1.615-15.836,1.279-32.805c-0.335-16.967,1.466-54.296,7.484-58.656
	c6.018-4.359,34.139-4.69,42.341-7.801c0,0,2.651-1.325,5.261-3.563C1194.871,1082.361,1196.42,1080.69,1197.375,1078.781z"/>
<path style="fill:#17202F;" d="M600.112,2215.62c7.635,1.696,44.116,0.848,56.842,0c12.726-0.848,19.231-2.881,21.916-8.228
	c2.687-5.347,14.564-27.273,12.019-32.429c-2.546-5.156-18.098-6.191-12.019-11.188c6.08-4.997,19.654,3.3,23.048,0
	c3.393-3.3,31.39,12.102,35.632,11.188c4.242-0.914,2.545-8.55,0-16.185c-2.545-7.636-26.301-22.912-35.632-18.243
	c-9.332,4.669-24.371,14.001-20.67,7.214c3.702-6.787,13.034-19.513,7.943-21.209c-5.09-1.697-16.119,6.787-16.119,6.787
	s0.478,14.891-15.271,21.872c-11.728,5.198-22.94,13.433-32.275,21.754c-3.2,2.852-6.186,5.714-8.889,8.469
	c-0.063,0.064-0.13,0.136-0.193,0.201C605.886,2196.427,592.522,2213.933,600.112,2215.62z"/>
<path style="fill:#17202F;" d="M768.941,2181.29c-8.484,3.788-46.661,31.785-46.661,31.785s38.177,3.906,42.419-5.683
	C768.941,2197.803,777.424,2177.502,768.941,2181.29z"/>
<path style="fill:#17202F;" d="M1156.653,2202.045c-11.029-5.09-21.21-4.182-22.907-20.755
	c-1.697-16.573,20.617-51.132,11.03-45.419c0,0-33.087,18.478-35.633,27.904c-2.545,9.426-5.939,39.968,0,39.968
	s29.693-7.123,35.633,3.65c5.938,10.773,15.271,20.105,25.451,23.499c10.181,3.394,77.203-2.586,78.9-8.08
	c1.697-5.494-7.635-16.595-22.906-25.467S1167.682,2207.135,1156.653,2202.045z"/>
<path style="fill:#17202F;" d="M1189.74,2140.534c-9.332-2.967-32.239,3.821-32.239,3.821s-18.664,31.368-11.029,36.469
	c7.635,5.102,62.342,0.011,67.652-3.383C1219.434,2174.049,1199.073,2143.501,1189.74,2140.534z"/>
<path style="fill:#843732;" d="M1021.16,323.304l-0.001-0.001c-0.087,9.952-0.249,20.231-0.516,29.793l0.463-1.881
	c-0.15,3.975-0.322,7.81-0.507,11.482c0.32-0.886,0.507-1.409,0.507-1.409s0.091,1.053,0.216,2.709
	c0.85-0.152,1.726-0.52,2.559-1.254c3.443-3.037,8.484-23.331,10.099-35.751c1.614-12.42,2.203-25.332-2.888-29.999
	c-0.362-0.333-0.764-0.458-1.153-0.66c-0.26,2.184-0.535,4.086-0.84,5.479C1027.119,310.861,1021.16,323.304,1021.16,323.304z"/>
<path style="fill:#F3B985;" d="M922.255,387.102c-1.301,1.249-2.588,2.849-3.078,4.687c-1.131,4.242-5.453,21.21-3.15,24.886
	c2.302,3.676,22.457,2.828,29.912,2.545c7.456-0.283,18.768-1.98,20.182-6.787c1.414-4.807,2.828-10.18,0-14.422
	c-1.746-2.619-5.207-5.556-6.941-7.557c-0.718-0.254-1.427-0.527-2.108-0.844c-5.657-2.628-12.371,0.366-17.781,0
	C935.575,389.358,928.014,386.83,922.255,387.102z"/>
<path style="fill:#F3B985;" d="M1021.231,295.255c-0.029-7.904-0.096-14.439-0.173-18.559
	C1021.135,280.827,1021.201,287.35,1021.231,295.255z"/>
<path style="fill:#F3B985;" d="M1021.232,295.571c-0.151-0.754-5.659-28.03-12.352-41.834c-6.788-13.999-27.573-21.21-43.693-23.33
	c-16.12-2.121-26.724,6.787-40.864,15.271c-14.14,8.483-20.22,5.939-32.521,5.939c-12.302,0-18.241,3.393-25.029,11.453
	c-6.783,8.057-11.647,8.033-11.652,8.033c-0.624,2.661-1.059-0.063-3.901,4.41c-2.842,4.474-8.665,10.594-8.665,10.594v23.78
	c0,0,0,0.001,0.001,0.001v-0.411c9.781,16.272,39.252,66.382,47.703,93.143c0,0,0.432,0.876,1.214,2.315
	c1.742-4.497,3.733-8.828,5.645-11.165c5.09-6.222,10.666-12.995,18.908-13.285c8.241-0.29,21.043,2.552,29.912,0
	c8.87-2.552,15.942-4.814,22.02-3.117c6.08,1.697,10.605-2.801,15.13,7.083c3.153,6.889,7.243,17.39,8.63,23.545
	c8.51-8.655,18.3-19.329,20.539-24.127v-0.001c1.088-2.512,1.938-4.581,1.938-4.581l6.448-26.19
	c0.267-9.562,0.428-19.841,0.516-29.793C1021.246,313.331,1021.259,303.729,1021.232,295.571z"/>
<path style="fill:#BF724C;" d="M966.121,398.01c2.828,4.242,1.414,9.615,0,14.422c-1.414,4.807-12.726,6.504-20.182,6.787
	c-7.456,0.283-27.611,1.131-29.912-2.545c-2.302-3.676,2.019-20.644,3.15-24.886c0.49-1.838,1.777-3.438,3.078-4.687
	c-2.626,0.124-4.913,0.772-6.228,2.582c-3.567,4.907-5.035,27.981-9.156,35.737c3.661,1.546,6.284,2.478,6.788,2.551
	c1.834,0.269,8.912,0.297,14.034,0c5.122-0.296,13.542-1.966,18.247,0c3.826,1.599,19.637-1.077,29.365-5.782
	c-2.081-1.197-3.049-15.837-4.093-22.688c-0.994-6.535-6.799-7.198-12.031-9.049C960.914,392.454,964.375,395.391,966.121,398.01z"
	/>
<path style="fill:#BF724C;" d="M866.773,263.069c6.788-8.059,12.727-11.453,25.029-11.453c12.301,0,18.381,2.545,32.521-5.939
	c14.14-8.484,24.744-17.393,40.864-15.271c16.119,2.121,36.905,9.332,43.693,23.33c6.693,13.805,12.201,41.082,12.352,41.834
	c-0.028-8.054-0.096-14.687-0.174-18.874c-0.003-0.181-0.007-0.343-0.01-0.514c-0.011-0.561-0.023-1.062-0.034-1.52
	c-0.005-0.197-0.01-0.392-0.014-0.569c-0.011-0.385-0.021-0.699-0.033-0.986c-0.004-0.134-0.01-0.291-0.014-0.403
	c-0.015-0.338-0.03-0.599-0.045-0.727c0-0.001,0-0.004,0-0.005c-0.462-4.019-0.793-9.346-1.759-14.37
	c-0.627-3.26-1.517-6.395-2.903-8.955c-0.88-1.626-2.524-3.565-4.579-5.605c-4.111-4.079-9.872-8.56-14.481-11.74
	c-2.304-1.59-4.32-2.855-5.696-3.582c-6.363-3.358-11.159-5.14-17.118-6.437c-1.192-0.26-2.43-0.5-3.737-0.729
	c-2.615-0.459-5.503-0.875-8.839-1.318c-2.533-0.336-5.612-0.32-8.934-0.041c-0.287,0.024-0.583,0.062-0.874,0.09
	c-2.91,0.281-5.978,0.763-9.05,1.395c-2.156,0.443-4.307,0.935-6.391,1.513c-1.756,0.486-3.465,1.014-5.087,1.574
	c-3.246,1.12-6.149,2.37-8.408,3.671c-6.628,3.818-12.505,6.592-17.709,8.605c-3.469,1.342-6.64,2.346-9.535,3.096
	c-1.447,0.375-2.825,0.686-4.137,0.945c-5.249,1.034-9.443,1.219-12.766,1.229c-1.662,0.004-3.105-0.035-4.356-0.035
	c-1.875,0-3.311,0.089-4.39,0.552c-0.359,0.154-0.68,0.35-0.962,0.597c-0.282,0.247-0.583,0.566-0.897,0.945
	c-4.711,5.696-12.592,25.238-13.178,27.732h0.001C855.126,271.102,859.99,271.125,866.773,263.069z"/>
<path style="fill:#BF724C;" d="M1020.643,353.096l-6.448,26.19c0,0-0.849,2.069-1.938,4.581c2.767-5.928,6.912-17.224,8.341-21.17
	c0.185-3.672,0.357-7.507,0.507-11.482L1020.643,353.096z"/>
<path style="fill:#BF724C;" d="M842.557,309.475v8.445c4.518,12.208,12.267,34.336,12.564,43.368
	c0.422,12.767,10.325,29.086,18.809,42.095c2.859,4.384,8.108,8.562,13.864,12.203c0.917-2.937,2.207-6.85,3.68-10.653
	c-0.781-1.44-1.214-2.315-1.214-2.315C881.808,375.858,852.337,325.747,842.557,309.475z"/>
<path style="fill:#843732;" d="M844.871,364.016c-0.058-3.302-8.131-50.783-8.131-50.783s-0.354-9.453-3.747-13.271
	c-2.484-2.795-11.32-9.206-17.049-10.788c-2.097-0.579-3.788-0.53-4.584,0.607c-2.969,4.242-1.697,9.333,0,25.452
	c1.697,16.119,5.359,36.488,11.8,42.211c1.568,1.394,3.668,2.691,5.94,3.813C836.157,364.744,844.915,366.513,844.871,364.016z"/>
<path style="fill:#BF724C;" d="M835.963,333.049c0,0-0.424-33.935-22.482-40.298c0,0-3.818,5.09,0,9.332
	c3.818,4.242,9.673,5.333,13.745,11.15C831.297,319.052,835.963,333.049,835.963,333.049z"/>
<path style="fill:#E8B136;" d="M1082.414,663.779c6.197,0.01,21-15.054,21.86-16.589c0.862-1.536,11.534-38.094,11.19-39.784
	c-0.345-1.69-22.378-14.746-26.509-17.665c-4.131-2.919-6.54-2.304-6.54-2.304s-2.41-0.615-6.542,2.304
	c-4.131,2.919-26.165,15.974-26.51,17.665c-0.344,1.69,10.328,38.247,11.19,39.784
	C1061.412,648.725,1076.217,663.789,1082.414,663.779z"/>
<path style="fill:#EFDDB9;" d="M1088.524,599.658c6.713,3.873,17.558,12.394,17.816,17.042c0.257,4.648-6.972,26.079-3.357,20.398
	c3.615-5.68,9.554-29.693,9.554-29.693l-30.123-18.074c0,0,1.463-2.086-6.025,3.217c-7.488,5.303-24.271,12.791-23.496,16.148
	c0.775,3.357,1.184,16.267,2.657,13.427c1.474-2.841,0.441-10.328,9.737-15.234C1074.581,601.982,1081.811,595.785,1088.524,599.658
	z"/>
<path style="fill:#435063;" d="M1221.4,669.446c-0.849,15.271-7.276,75.507-7.276,75.507s26.789-53.448,27.637-75.507
	c0.849-22.057-23.754-61.084-23.754-61.084S1222.249,654.175,1221.4,669.446z"/>
<path style="fill:#435063;" d="M1262.971,820.459c-7.636,22.906-18.665,53.448-16.119,50.903
	c2.545-2.545,39.874-50.903,42.419-70.416c2.545-19.513-26.3-66.874-26.3-66.874
	C1264.668,736.469,1270.606,797.553,1262.971,820.459z"/>
<path style="fill:#435063;" d="M1328.297,878.15c-5.939-8.484-44.116,33.087-44.116,33.087s42.419-11.029,44.116-11.029
	S1334.235,886.633,1328.297,878.15z"/>
<path style="fill:#435063;" d="M1292.664,919.374l51.752,8.807c0,0,4.242-5.916,2.545-11.552
	C1345.264,910.993,1295.21,918.023,1292.664,919.374z"/>
<path style="fill:#435063;" d="M1218.855,1001.056l36.48,6.897c0,0,37.329-12.725,43.268-21.21
	C1304.542,978.259,1218.855,1001.056,1218.855,1001.056z"/>
<path style="fill:#362026;" d="M1036.452,223.478c-7.07-14.14-15.554-30.553-24.887-41.582
	c-9.331-11.029-23.711-23.844-47.792-27.431c-37.894-5.645-47.227-2.446-68.436,0.011c-30.905,3.579-44.708,14.139-52.781,18.382
	c-8.073,4.242-21.594,23.755-20.463,30.259c0,0-4.807,1.696-7.635,6.504c-2.828,4.807-6.293,22.341-4.879,35.915
	c1.283,12.319,2.187,34.351,6.343,41.511c0.001,0.717,0.008,1.424,0.023,2.128c5.729,1.582,14.565,7.993,17.049,10.788
	c3.393,3.818,3.747,13.271,3.747,13.271s8.073,47.481,8.131,50.783c0.044,2.497-8.714,0.728-15.771-2.758
	c2.281,8.929,6.319,22.714,10.257,26.088c2.447,2.098,5.088,2.431,7.373,2.139c0.137,1.678,0.278,3.345,0.428,4.978
	c0.001,0.003,0.001,0.007,0.001,0.01c0.8,8.703,1.786,16.384,3.016,19.089c2.828,6.221,22.623,15.688,33.936,22.549
	c11.311,6.861,21.62,19.319,31.916,22.147c10.296,2.828,35.176-0.443,42.742-0.014c3.334,0.188,8.181-1.576,12.824-4.138
	c5.895-3.251,11.453-7.816,13.092-11.643c1.269-2.965,6.343-8.681,11.961-14.713c7.348-7.889,15.626-16.319,17.55-19.844
	c3.394-6.222,5.051-14.54,7.051-18.299c1.591-2.993,0.561-19.14,0.075-25.611c-0.125-1.656-0.216-2.709-0.216-2.709
	s-0.187,0.523-0.507,1.409c-1.429,3.946-5.574,15.242-8.341,21.17v0.001c-2.239,4.797-12.029,15.471-20.539,24.127
	c-1.387-6.155-5.477-16.656-8.63-23.545c-4.525-9.884-9.05-5.386-15.13-7.083c-6.079-1.697-13.151,0.565-22.02,3.117
	c-8.87,2.552-21.671-0.29-29.912,0c-8.242,0.29-13.818,7.063-18.908,13.285c-1.912,2.336-3.903,6.667-5.645,11.165
	c-1.473,3.804-2.763,7.716-3.68,10.653c-5.756-3.641-11.006-7.819-13.864-12.203c-8.484-13.009-18.387-29.329-18.809-42.095
	c-0.298-9.031-8.046-31.16-12.564-43.368c0-0.001-0.001-0.001-0.001-0.002v-31.813c0,0,5.823-6.12,8.665-10.594
	c2.842-4.473,3.277-1.749,3.901-4.41h-0.001c0.585-2.494,8.466-22.036,13.178-27.732c0.314-0.379,0.615-0.698,0.897-0.945
	c0.282-0.247,0.603-0.443,0.962-0.597c1.079-0.463,2.515-0.552,4.39-0.552c1.25,0,2.694,0.04,4.356,0.035
	c3.323-0.009,7.517-0.195,12.766-1.229c1.313-0.258,2.691-0.57,4.137-0.945c2.895-0.75,6.066-1.754,9.535-3.096
	c5.204-2.013,11.08-4.787,17.709-8.605c2.259-1.301,5.162-2.551,8.408-3.671c1.622-0.56,3.331-1.088,5.087-1.574
	c2.084-0.577,4.234-1.069,6.391-1.513c3.073-0.632,6.14-1.114,9.05-1.395c0.291-0.028,0.586-0.066,0.874-0.09
	c3.322-0.278,6.4-0.295,8.934,0.041c3.336,0.443,6.224,0.859,8.839,1.318c1.307,0.229,2.545,0.469,3.737,0.729
	c5.959,1.297,10.755,3.079,17.118,6.437c1.377,0.727,3.392,1.992,5.696,3.582c4.608,3.18,10.37,7.661,14.481,11.74
	c2.056,2.04,3.699,3.979,4.581,5.605c1.386,2.56,2.275,5.694,2.902,8.955c0.966,5.024,1.297,10.352,1.759,14.37
	c0,0.001,0,0.005,0,0.005c0.015,0.129,0.03,0.388,0.045,0.727c0.005,0.112,0.01,0.269,0.014,0.403
	c0.011,0.286,0.022,0.603,0.033,0.986c0.005,0.176,0.01,0.372,0.014,0.569c0.011,0.456,0.023,0.961,0.034,1.52
	c0.003,0.171,0.007,0.333,0.01,0.514c0.158,8.409,0.275,26.792,0.101,46.607l0.001,0.001c0,0,5.96-12.443,7.939-21.493
	c0.305-1.393,0.58-3.295,0.84-5.479c1.426-12.002,2.293-33.678,3.968-40.617C1035.886,247.515,1043.522,237.617,1036.452,223.478z
	 M916.026,389.684c1.315-1.81,3.603-2.459,6.228-2.582c5.76-0.272,13.321,2.256,17.036,2.507c5.41,0.366,12.124-2.628,17.781,0
	c0.681,0.317,1.39,0.59,2.108,0.844c5.232,1.851,11.037,2.514,12.031,9.049c1.044,6.851,2.012,21.491,4.093,22.688
	c-9.728,4.705-25.539,7.382-29.365,5.782c-4.705-1.966-13.125-0.296-18.247,0c-5.122,0.297-12.2,0.269-14.034,0
	c-0.504-0.074-3.127-1.005-6.788-2.551C910.991,417.665,912.459,394.591,916.026,389.684z"/>
<g>
	<polygon style="fill:#0C121E;" points="668.84,811.441 668.84,811.441 668.84,811.44 	"/>
	<path style="fill:#0C121E;" d="M1000.55,1043.149c0.106-0.318,0.145-0.862,0.157-1.574c0.006-0.356,0.005-0.755,0.001-1.188
		c-0.007-0.769-0.017-1.66-0.011-2.611h-45.96l0,0l-0.001,0h-38.71l-76.67-81.994v28.975l-59.387,16.299
		c0,0-40.723-28.323-43.533-31.704c-2.81-3.381,3.674-86.418,3.674-86.418l-33.701-111.059c0,0-6.189-63.515-6.189-79.109
		c0-0.038-0.005-0.076-0.005-0.114c-0.003-3.313-0.183-6.658-0.473-10.015c-0.1-1.159-0.269-2.323-0.401-3.485
		c-0.255-2.255-0.528-4.512-0.89-6.771c-0.214-1.339-0.47-2.677-0.718-4.016c-0.391-2.103-0.805-4.205-1.273-6.3
		c-0.302-1.356-0.618-2.708-0.949-4.058c-0.519-2.114-1.07-4.218-1.652-6.311c-0.319-1.149-0.634-2.299-0.968-3.44l-9.439-15.99
		c0,0-6.533,88.128-2.985,100.324c3.548,12.196,21.99,132.101,16.164,135.494c-5.826,3.392-27.771-56.585-27.792-56.644
		c0.007,0.054,0.013,0.093,0.02,0.147c0.567,4.281,0.911,6.802,0.911,6.802s-0.035-0.106-0.089-0.268
		c-0.034-0.104-0.099-0.297-0.152-0.457c-0.046-0.138-0.112-0.335-0.17-0.51c-0.225-0.676-0.537-1.607-0.935-2.798
		c-0.001-0.004-0.002-0.007-0.003-0.011c-0.316-0.944-0.685-2.048-1.098-3.279c-0.264-0.789-0.545-1.626-0.845-2.521
		c-0.117-0.35-0.234-0.698-0.356-1.063c-0.175-0.521-0.357-1.06-0.542-1.611c-0.134-0.398-0.271-0.806-0.41-1.219
		c-0.196-0.582-0.393-1.17-0.599-1.781c-0.13-0.386-0.265-0.787-0.398-1.184c-1.196-3.551-2.533-7.516-3.979-11.787
		c-0.046-0.138-0.093-0.274-0.14-0.412c-0.376-1.111-0.758-2.239-1.148-3.386c-0.009-0.027-0.018-0.053-0.027-0.08
		c-4.131-12.175-8.942-26.235-13.514-39.312c-0.007-0.019-0.015-0.04-0.021-0.06c-0.441-1.261-0.88-2.513-1.316-3.754
		c-0.028-0.08-0.056-0.16-0.084-0.239c-0.418-1.19-0.833-2.367-1.245-3.533c-0.068-0.192-0.135-0.381-0.203-0.573
		c-1.686-4.771-3.309-9.309-4.819-13.459c-0.051-0.144-0.105-0.291-0.157-0.434c-0.346-0.951-0.685-1.876-1.018-2.783
		c-0.034-0.091-0.069-0.189-0.102-0.279c0,0.001,0,0.002,0,0.002c2.676,22.987,5.383,49.641,4.318,55.482
		c-1.952,10.689,39.336,103.446,31.701,109.102c-7.636,5.656-34.274-26.017-31.701-20.361c2.573,5.656,19.714,56.013,19.714,56.013
		s29.73-37.083,54.26-71.038l0.001-0.004c2.961,26.159,5.794,50.569,7.84,68.998c0.008,0.072,0.016,0.147,0.025,0.219
		c0.268,2.41,0.522,4.725,0.761,6.919c0.004,0.036,0.007,0.069,0.011,0.104c0.213,1.957,0.411,3.806,0.599,5.576
		c0.037,0.352,0.075,0.711,0.112,1.056c0.188,1.781,0.364,3.48,0.522,5.046c0.018,0.178,0.033,0.334,0.05,0.509
		c0.138,1.368,0.261,2.632,0.373,3.818c0.029,0.304,0.058,0.611,0.086,0.903c0.118,1.271,0.224,2.457,0.308,3.485
		c0.007,0.077,0.01,0.136,0.016,0.212c0.075,0.921,0.131,1.711,0.175,2.417c0.013,0.203,0.024,0.399,0.034,0.583
		c0.038,0.696,0.065,1.308,0.065,1.733c0,3.821,0.318,9.765,0.903,16.693l0,0c-2.232-1.203-3.926-2.582-4.672-4.264
		c-1.315-2.97-2.803-5.939-4.476-8.723c-5.02-8.351-11.706-15.032-20.402-15.032c-11.594,0-21.492-1.697-21.492-1.697
		l-15.098-17.514l-22.502-25.162c0.63,2.384,1.178,4.442,1.618,6.086c0.036,0.135,0.065,0.244,0.099,0.374
		c0.099,0.363,0.194,0.719,0.278,1.037c0.055,0.204,0.101,0.373,0.151,0.557c0.084,0.311,0.165,0.613,0.233,0.866
		c0.263,0.974,0.41,1.518,0.41,1.518l-63.035-77.804c0,0,36.198,54.615,46.379,78.369c10.18,23.755,16.657,49.772,16.657,49.772
		l31.701-5.656l-16.196,14.706c0,0,40.574,6.787,41.535,11.311c0.231,1.087,0.424,3.894,0.554,7.557
		c0.278,0.004,0.556,0.006,0.832,0.012c1.092,0.023,2.173,0.059,3.237,0.111c0.479,0.023,0.939,0.058,1.411,0.087
		c0.677,0.041,1.352,0.083,2.01,0.136c0.479,0.04,0.939,0.088,1.406,0.134c0.624,0.061,1.241,0.125,1.84,0.198
		c0.451,0.055,0.885,0.115,1.32,0.178c0.58,0.083,1.143,0.171,1.691,0.266c0.406,0.07,0.806,0.142,1.192,0.219
		c0.544,0.109,1.057,0.227,1.561,0.349c0.334,0.081,0.675,0.16,0.99,0.247c0.529,0.147,1.007,0.308,1.476,0.472
		c0.232,0.081,0.487,0.155,0.704,0.241c0.655,0.259,1.252,0.535,1.751,0.835c7.423,4.454,13.547,18.652,14.962,22.131
		c0.202,0.497,0.308,0.775,0.308,0.775s15.271-0.848,18.664-4.242c2.293-2.293,17.745-1.484,29.889,0.328
		c2.783,0.415,5.366,0.881,7.602,1.377c0.254,0.056,0.49,0.112,0.732,0.169c0.8,0.187,1.535,0.376,2.215,0.568
		c0.239,0.067,0.486,0.133,0.708,0.201c0.817,0.249,1.555,0.5,2.122,0.752c4.419,1.964,6.244,5.038,7.029,7.302
		c0.57,1.648,0.607,2.878,0.607,2.878v0.001c0,0,2.545-4.242,8.484-6.787c5.938-2.545,22.058-3.393,32.239-2.545
		c10.181,0.849,13.574,5.939,17.816,7.635c0.663,0.265,0.973,3.43,1.026,8.582c0.01,1.03,0.011,2.14,0.001,3.322
		c-0.028,3.546-0.143,7.742-0.323,12.39c-0.087,2.241-0.193,4.616-0.31,7.045c6.685,0.385,15.843,0.845,26.899,1.233
		c1.985,0.07,4.159,0.13,6.262,0.193c0.216-5.057,0.38-8.162,0.38-8.162s75.506-6.222,78.806,0c0.513,0.969,1.097,3.866,1.68,8.087
		c1.227-0.043,2.457-0.088,3.692-0.136c6.118-0.234,12.309-0.522,18.551-0.877v-0.001c0.842-0.047,1.692-0.109,2.535-0.16
		L1000.55,1043.149z"/>
</g>
</svg>
